<svg width="173" height="73" viewBox="0 0 173 73" fill="none" xmlns="http://www.w3.org/2000/svg">
<path d="M1 36.4402C21.0807 26.8107 23.8988 42.8473 38.0928 42.8473C52.2869 42.8473 52.2113 30.8308 65.979 30.8308C79.7467 30.8308 84.9834 -0.394555 91.6127 3.0319C98.2421 6.45836 109.722 26.9364 119.104 30.8308C128.487 34.7251 137.747 31.9131 146.947 17.1561C156.148 2.39918 173 17.1562 173 17.1562V72.6938H1V36.4402Z" fill="url(#paint0_linear_103_6)"/>
<path d="M1 36.5534C21.1377 26.887 23.9638 42.9851 38.1981 42.9851C52.4324 42.9851 52.3566 30.9234 66.1633 30.9234C79.9701 30.9234 85.2216 -1.49013 91.8698 1.94943C98.518 5.38899 110.03 27.0133 119.439 30.9234C128.848 34.8335 135.154 35.6037 144.38 20.794C153.606 5.9844 164 12.7641 164 12.7641L172.5 17.3741" stroke="#6AD2FF" stroke-width="2" stroke-miterlimit="10"/>
<defs>
<linearGradient id="paint0_linear_103_6" x1="87" y1="0.983022" x2="87" y2="72.6939" gradientUnits="userSpaceOnUse">
<stop stop-color="#68C9FF"/>
<stop offset="1" stop-color="#E8F9FD" stop-opacity="0.102"/>
</linearGradient>
</defs>
</svg>
