<svg width="58" height="58" viewBox="0 0 58 58" fill="none" xmlns="http://www.w3.org/2000/svg">
<rect width="58" height="58" rx="12" fill="#6AD2FF" fill-opacity="0.28"/>
<path d="M17.8018 16.0442C17.6342 16.1193 17.576 16.2285 17.6342 16.3685C17.6992 16.5255 17.8155 16.5971 18.1062 16.6586C18.2498 16.6893 18.5406 16.7712 18.7458 16.836C19.2794 17.0033 19.4333 17.0238 19.8745 16.9794C20.4594 16.9214 20.4081 16.9145 20.4594 17.0681C20.4833 17.1432 20.6748 17.7883 20.8835 18.5016C21.0921 19.2149 21.2939 19.8907 21.3281 20.0033C21.5881 20.8292 22.149 22.7917 22.1353 22.8156C22.125 22.8326 22.0635 22.8565 21.9951 22.8668C21.9301 22.8804 21.8685 22.9043 21.8617 22.918C21.8446 22.9453 21.9267 23.2763 21.9643 23.3378C21.9746 23.3514 22.0395 23.3412 22.1148 23.3139C22.19 23.2866 22.255 23.2763 22.2619 23.29C22.2687 23.3036 22.32 23.4777 22.3713 23.6791L22.4671 24.0443L21.8172 24.7371C21.4581 25.1193 20.9998 25.6108 20.7945 25.8292C20.5756 26.0681 20.3978 26.232 20.3602 26.232C20.326 26.232 20.2405 26.1705 20.1721 26.092C20.0352 25.9419 19.9018 25.8565 19.7924 25.8565C19.7548 25.8565 19.6898 25.8088 19.6487 25.7507C19.5701 25.6415 19.3478 25.5187 19.2212 25.5152C19.1836 25.5152 19.1152 25.4743 19.0673 25.4265C18.9544 25.3071 18.8245 25.2422 18.6842 25.2422C18.609 25.2422 18.544 25.2149 18.5029 25.1705C18.4038 25.0579 18.2669 25.0033 18.1028 25.0033C18.0036 25.0033 17.9352 24.9828 17.9044 24.9453C17.8326 24.8634 17.6547 24.7985 17.4905 24.7985C17.4016 24.7985 17.2956 24.7712 17.2237 24.7234C17.1382 24.6722 17.039 24.6483 16.8817 24.6449C16.7586 24.6415 16.591 24.6108 16.5055 24.5801C16.3858 24.5323 16.3276 24.5289 16.2182 24.5562C16.1156 24.5801 16.0608 24.5767 15.989 24.5391C15.8796 24.4845 15.6094 24.4743 15.517 24.5221C15.476 24.546 15.4076 24.5391 15.3015 24.4982C15.1545 24.447 15.1305 24.447 14.9595 24.5016C14.8158 24.546 14.7474 24.5494 14.6414 24.5221C14.5285 24.4948 14.4704 24.4982 14.3507 24.5425C14.2618 24.5767 14.1113 24.5972 13.9916 24.5972C13.8445 24.5937 13.7487 24.6108 13.6495 24.662C13.5674 24.703 13.4477 24.7303 13.3417 24.7303C13.222 24.7303 13.1262 24.7576 13.0202 24.8156C12.9415 24.8634 12.8218 24.9009 12.7602 24.9009C12.6234 24.9009 12.4764 24.9521 12.3908 25.0306C12.3566 25.0613 12.2335 25.1057 12.1172 25.1296C11.9702 25.1603 11.8812 25.2013 11.8026 25.2763C11.7444 25.3309 11.6623 25.3787 11.6213 25.3787C11.5016 25.3787 11.334 25.4641 11.2245 25.5767C11.163 25.6449 11.0774 25.6893 10.9885 25.703C10.8893 25.72 10.8141 25.7678 10.7115 25.8736C10.6328 25.9521 10.5097 26.0374 10.4379 26.0647C10.3216 26.1057 10.0753 26.3378 10.0753 26.406C10.0753 26.4197 10.0343 26.4402 9.98637 26.4504C9.84272 26.4879 9.74011 26.5699 9.65802 26.7132C9.6204 26.7849 9.54173 26.86 9.48701 26.8838C9.37414 26.9316 9.19628 27.1228 9.16892 27.232C9.15866 27.2729 9.09025 27.3412 9.01842 27.3821C8.9295 27.4333 8.86109 27.5118 8.80636 27.6211C8.76532 27.7098 8.66271 27.8463 8.58404 27.9214C8.4917 28.0101 8.42671 28.1091 8.40277 28.1978C8.37883 28.2832 8.33094 28.3617 8.27964 28.3958C8.18045 28.4606 8.05732 28.6859 8.05732 28.8019C8.05732 28.8463 8.01627 28.918 7.96839 28.9658C7.8521 29.075 7.78711 29.2047 7.78027 29.3446C7.77343 29.4129 7.73581 29.4948 7.67424 29.5596C7.58189 29.6586 7.49297 29.9624 7.53401 30.0306C7.54427 30.0477 7.52033 30.092 7.48271 30.133C7.38694 30.2354 7.33905 30.3719 7.33905 30.5391C7.33905 30.6245 7.30827 30.7269 7.26381 30.8019C7.20566 30.8907 7.18514 30.976 7.18514 31.1296C7.18514 31.249 7.15778 31.4026 7.12015 31.4982C7.06543 31.6347 7.06201 31.6893 7.08937 31.8156C7.10989 31.8975 7.11331 31.976 7.09621 31.9828C7.08253 31.9931 7.05517 32.0784 7.03464 32.1705C7.00728 32.2968 7.00728 32.3719 7.04149 32.4675C7.07569 32.5767 7.07569 32.6211 7.03122 32.7405C6.99018 32.8634 6.99018 32.9043 7.0278 33.0306C7.05175 33.1125 7.06885 33.2217 7.06201 33.2798C7.04491 33.4982 7.05517 33.6586 7.09963 33.7576C7.12357 33.8122 7.14067 33.9487 7.13725 34.0579C7.13041 34.2047 7.14409 34.2832 7.19882 34.3719C7.2467 34.4572 7.26723 34.546 7.26381 34.6757C7.26038 34.8224 7.27749 34.8907 7.34589 34.9931C7.40404 35.0784 7.43824 35.1876 7.4485 35.3139C7.45876 35.4504 7.48955 35.5357 7.55453 35.6245C7.60584 35.6893 7.64688 35.7849 7.64688 35.8361C7.64688 35.959 7.72213 36.1262 7.83158 36.2422C7.87946 36.2934 7.9205 36.3753 7.9205 36.4231C7.9205 36.5392 8.04022 36.7678 8.1394 36.8293C8.19413 36.8634 8.22833 36.9282 8.24201 37.0204C8.25912 37.1194 8.30358 37.1979 8.41303 37.3071C8.49512 37.389 8.58062 37.5084 8.60457 37.5767C8.62509 37.645 8.7106 37.7576 8.79952 37.8361C8.88845 37.9112 8.98422 38.034 9.01842 38.1091C9.05947 38.2013 9.13129 38.2764 9.2339 38.3412C9.31941 38.3924 9.40492 38.4743 9.42886 38.5289C9.47675 38.645 9.6717 38.819 9.78457 38.8463C9.83246 38.8566 9.87008 38.8839 9.87008 38.9009C9.87008 38.9829 10.0206 39.133 10.1745 39.2115C10.2668 39.2559 10.39 39.348 10.4481 39.4163C10.5097 39.4846 10.6294 39.5665 10.7183 39.6006C10.8072 39.6313 10.927 39.7098 10.9851 39.7712C11.0946 39.8873 11.2245 39.9521 11.3511 39.9521C11.3921 39.9521 11.4639 39.9931 11.5084 40.0409C11.6213 40.1569 11.7615 40.2252 11.9052 40.232C11.9873 40.2354 12.0522 40.2661 12.1138 40.331C12.2027 40.4231 12.2882 40.4538 12.5037 40.4777C12.5516 40.4811 12.6611 40.5255 12.7466 40.5767C12.856 40.6416 12.9518 40.6689 13.0681 40.6689C13.1775 40.6689 13.2733 40.6928 13.3554 40.7439C13.4443 40.802 13.5298 40.8224 13.6837 40.8224C13.7966 40.8224 13.9197 40.8395 13.9574 40.8634C14.0702 40.9282 14.2652 40.9487 14.3986 40.9146C14.467 40.8941 14.5285 40.8907 14.5388 40.9078C14.5491 40.9248 14.6346 40.9521 14.7269 40.9726C14.8603 40.9999 14.9287 40.9999 15.0347 40.9624C15.11 40.9351 15.1818 40.9282 15.1887 40.9453C15.2263 41.0067 15.517 41.0204 15.6538 40.9658C15.7564 40.9248 15.8146 40.9214 15.9138 40.9487C16.0437 40.9829 16.1498 40.9726 16.3174 40.9044C16.3755 40.8805 16.5089 40.8668 16.6184 40.8702C16.7654 40.8771 16.8441 40.8634 16.933 40.8088C17.0185 40.761 17.1075 40.7405 17.2374 40.7439C17.3845 40.7474 17.4529 40.7303 17.5555 40.662C17.641 40.604 17.7505 40.5699 17.877 40.5596C18.0138 40.5494 18.0993 40.5187 18.1883 40.4538C18.2533 40.4026 18.349 40.3617 18.4003 40.3617C18.5235 40.3617 18.6911 40.2866 18.8073 40.1774C18.8587 40.1296 18.9407 40.0887 18.9886 40.0887C19.1049 40.0887 19.3341 39.9692 19.3956 39.8702C19.4298 39.8156 19.4948 39.7815 19.5872 39.7678C19.6864 39.7508 19.765 39.7064 19.8745 39.5972C19.9566 39.5153 20.0763 39.43 20.1447 39.4061C20.2131 39.3856 20.326 39.3003 20.4046 39.2115C20.4799 39.1228 20.603 39.0272 20.6783 38.9931C20.7706 38.9521 20.8459 38.8805 20.9108 38.7781C20.9621 38.6927 21.0442 38.6074 21.099 38.5835C21.2152 38.5358 21.3897 38.3412 21.417 38.2286C21.4273 38.1808 21.4547 38.1433 21.4718 38.1433C21.5539 38.1433 21.7043 37.9931 21.7762 37.8429C21.8172 37.7542 21.9096 37.6313 21.9814 37.5699C22.0532 37.5084 22.1353 37.389 22.1695 37.3003C22.2037 37.2115 22.2892 37.0818 22.3576 37.0136C22.4466 36.9248 22.4944 36.8395 22.515 36.7371L22.5457 36.5904L24.2696 36.4334C26.1131 36.2627 26.291 36.2456 26.4244 36.1944C26.4723 36.1774 26.5441 36.1603 26.5851 36.1535C26.6501 36.1433 26.8382 36.0648 26.9716 35.9863C26.999 35.9726 27.0606 35.9385 27.1084 35.918C27.2589 35.8429 27.5736 35.5904 27.7344 35.4129C27.9635 35.1603 28.1345 34.8258 28.22 34.4709C28.2269 34.4538 28.4355 34.406 28.6852 34.3685C29.0443 34.3173 29.2974 34.3071 29.8618 34.3105C30.6519 34.3207 30.7511 34.3037 30.8913 34.1398C31.0521 33.9487 30.9426 33.6927 30.6519 33.5903C30.5493 33.5528 30.2962 33.5357 29.7421 33.5221C29.2119 33.5118 28.8562 33.4845 28.6031 33.4402C28.2269 33.3753 28.1687 33.3446 28.1687 33.2115C28.1687 33.1535 28.0832 32.9453 27.9909 32.7849C27.9772 32.7576 27.9464 32.6961 27.9225 32.6484C27.8985 32.6006 27.8609 32.5392 27.837 32.5084C27.7993 32.4607 28.285 31.8497 31.5754 27.8224L35.3582 23.191L35.8405 22.819C36.1346 22.5903 36.333 22.4606 36.3399 22.4879C36.3501 22.5084 36.4117 22.6961 36.4801 22.9043L36.6066 23.2797L37.0239 23.3855L37.4446 23.4913L37.6464 23.8634C37.7593 24.075 37.8653 24.232 37.8893 24.2286C37.9166 24.2217 38.0226 24.4504 38.1834 24.86C38.3168 25.2149 38.4297 25.5187 38.4297 25.5391C38.4297 25.6006 38.31 25.6791 38.1766 25.7064C38.0808 25.7234 37.9987 25.7746 37.9029 25.8736C37.8243 25.9521 37.7011 26.0374 37.6293 26.0647C37.513 26.1057 37.2668 26.3378 37.2668 26.406C37.2668 26.4197 37.2257 26.4402 37.1778 26.4504C37.0342 26.4879 36.9316 26.5699 36.8495 26.7132C36.8084 26.7849 36.7469 26.8531 36.7127 26.8668C36.5998 26.9009 36.4185 27.0852 36.3809 27.1978C36.357 27.2695 36.2954 27.3344 36.2099 27.3821C36.1175 27.4333 36.0525 27.5084 35.9978 27.6211C35.9568 27.7098 35.8644 27.8361 35.7926 27.8975C35.7174 27.9623 35.6387 28.075 35.6045 28.1705C35.5703 28.2593 35.5019 28.3651 35.4506 28.406C35.3582 28.4845 35.2488 28.7064 35.2488 28.819C35.2488 28.8531 35.2077 28.918 35.1598 28.9658C35.0436 29.0716 34.982 29.1978 34.9649 29.348C34.958 29.4129 34.9136 29.5153 34.8623 29.5767C34.7631 29.6927 34.7357 29.7644 34.7255 29.9589C34.722 30.0272 34.6913 30.1125 34.6639 30.1467C34.5647 30.2559 34.5305 30.3548 34.5305 30.5187C34.5305 30.6245 34.5031 30.72 34.4553 30.8019C34.4005 30.8907 34.3766 30.9794 34.3766 31.1296C34.3732 31.2422 34.3527 31.3787 34.3287 31.4368C34.2603 31.6006 34.2466 31.7064 34.2842 31.8395C34.3048 31.9078 34.3082 31.9726 34.2911 31.9828C34.2329 32.0204 34.1885 32.331 34.2295 32.4436C34.2569 32.5255 34.2535 32.5972 34.2193 32.7405C34.1816 32.9078 34.1816 32.9521 34.2295 33.0818C34.2706 33.1979 34.2774 33.2627 34.25 33.3549C34.2158 33.488 34.2261 33.5903 34.2945 33.7576C34.3185 33.8122 34.3321 33.9487 34.3287 34.0579C34.3219 34.2047 34.3356 34.2832 34.3903 34.3753C34.4416 34.4607 34.4621 34.546 34.4587 34.6791C34.4553 34.8258 34.4724 34.8941 34.5373 34.9965C34.5955 35.0784 34.6297 35.1876 34.64 35.3139C34.6502 35.4504 34.681 35.5357 34.746 35.6245C34.7973 35.6893 34.8383 35.7849 34.8383 35.8361C34.8383 35.959 34.9136 36.1262 35.023 36.2422C35.0709 36.2934 35.112 36.3753 35.112 36.4231C35.112 36.5392 35.2317 36.7678 35.3309 36.8293C35.3856 36.8634 35.4198 36.9282 35.4335 37.0204C35.4506 37.1194 35.495 37.1979 35.6045 37.3071C35.6866 37.389 35.7721 37.5084 35.796 37.5767C35.8165 37.645 35.9021 37.7576 35.991 37.8361C36.0799 37.9112 36.1757 38.034 36.2099 38.1091C36.2509 38.2013 36.3228 38.2764 36.4254 38.3412C36.5109 38.3924 36.5964 38.4743 36.6203 38.5289C36.6682 38.645 36.8632 38.819 36.976 38.8463C37.0239 38.8566 37.0615 38.8839 37.0615 38.9009C37.0615 38.9829 37.212 39.133 37.3659 39.2115C37.4583 39.2559 37.5814 39.348 37.6396 39.4163C37.7011 39.4846 37.8174 39.5631 37.9098 39.5972C37.9987 39.6279 38.0979 39.6928 38.1355 39.7371C38.2108 39.8361 38.4297 39.9521 38.5391 39.9521C38.5836 39.9521 38.6554 39.9931 38.6999 40.0409C38.8127 40.1569 38.953 40.2252 39.0966 40.232C39.1787 40.2354 39.2437 40.2661 39.3053 40.331C39.3942 40.4231 39.4797 40.4538 39.6952 40.4777C39.7431 40.4811 39.8525 40.5255 39.938 40.5767C40.0475 40.6416 40.1432 40.6689 40.2595 40.6689C40.369 40.6689 40.4647 40.6928 40.5468 40.7439C40.6358 40.802 40.7213 40.8224 40.8752 40.8224C40.9881 40.8224 41.1112 40.8395 41.1488 40.8634C41.2617 40.9282 41.4566 40.9487 41.59 40.9146C41.6584 40.8941 41.72 40.8907 41.7303 40.9078C41.7405 40.9248 41.826 40.9521 41.9184 40.9726C42.0518 40.9999 42.1202 40.9999 42.2262 40.9624C42.3015 40.9351 42.3733 40.9282 42.3801 40.9453C42.4177 41.0067 42.7085 41.0204 42.8453 40.9658C42.9479 40.9248 43.006 40.9214 43.1052 40.9487C43.2352 40.9829 43.3412 40.9726 43.5088 40.9044C43.567 40.8805 43.7004 40.8668 43.8098 40.8702C43.9569 40.8771 44.0355 40.8634 44.1245 40.8088C44.21 40.761 44.2989 40.7405 44.4289 40.7439C44.576 40.7474 44.6444 40.7303 44.747 40.662C44.8325 40.604 44.9419 40.5699 45.0685 40.5596C45.2053 40.5494 45.2908 40.5187 45.3797 40.4538C45.4447 40.4026 45.5405 40.3617 45.5918 40.3617C45.7149 40.3617 45.8825 40.2866 45.9988 40.1774C46.0501 40.1296 46.1322 40.0887 46.1801 40.0887C46.2964 40.0887 46.5255 39.9692 46.5871 39.8702C46.6213 39.8156 46.6863 39.7815 46.7786 39.7678C46.8778 39.7508 46.9565 39.7064 47.0659 39.5972C47.148 39.5153 47.2677 39.43 47.3361 39.4061C47.4046 39.3856 47.5174 39.3003 47.5961 39.2115C47.6713 39.1228 47.7945 39.0272 47.8697 38.9931C47.9621 38.9521 48.0373 38.8805 48.1023 38.7781C48.1536 38.6927 48.2357 38.6074 48.2904 38.5835C48.4067 38.5358 48.5811 38.3412 48.6085 38.2286C48.6188 38.1808 48.6461 38.1433 48.6632 38.1433C48.7453 38.1433 48.8958 37.9931 48.9745 37.8395C49.0189 37.7474 49.1113 37.6245 49.1797 37.5665C49.2481 37.505 49.3302 37.3856 49.3644 37.2968C49.3952 37.2081 49.4738 37.0886 49.5354 37.0306C49.6517 36.9214 49.7167 36.7917 49.7167 36.6654C49.7167 36.6245 49.7577 36.5528 49.8056 36.5084C49.9185 36.3992 49.9869 36.2627 49.9971 36.1228C50.0006 36.0545 50.0382 35.9726 50.0998 35.9112C50.1887 35.8156 50.2195 35.7269 50.2434 35.5153C50.2468 35.4675 50.2913 35.3583 50.3426 35.2729C50.4076 35.1637 50.4349 35.0682 50.4349 34.959C50.4349 34.86 50.4623 34.7576 50.5102 34.6723C50.5649 34.5801 50.5889 34.488 50.5889 34.3378C50.5889 34.2252 50.606 34.1023 50.6299 34.0648C50.6949 33.9521 50.7154 33.7576 50.6812 33.6279C50.6641 33.563 50.6607 33.4948 50.6744 33.4777C50.7325 33.4231 50.7701 33.1569 50.7394 33.0477C50.7188 32.976 50.7188 32.8668 50.7462 32.7269C50.7838 32.546 50.7804 32.4948 50.7359 32.3787C50.6915 32.2695 50.688 32.2115 50.7154 32.1125C50.7496 31.9828 50.7394 31.877 50.6709 31.7098C50.647 31.6518 50.6333 31.5187 50.6367 31.4129C50.6436 31.2627 50.6299 31.1876 50.5718 31.0818C50.517 30.9897 50.4999 30.9146 50.5102 30.8361C50.5307 30.7064 50.4897 30.5596 50.3939 30.4231C50.3563 30.3685 50.3323 30.2729 50.3323 30.1842C50.3323 30.075 50.305 29.9897 50.2297 29.8736C50.175 29.7849 50.1271 29.6723 50.1271 29.6245C50.1271 29.5016 50.0485 29.3344 49.9424 29.2388C49.8877 29.1842 49.8535 29.1193 49.8535 29.0579C49.8535 28.9282 49.7646 28.7576 49.6483 28.662C49.5833 28.6108 49.5422 28.5391 49.5286 28.4436C49.5115 28.3412 49.4636 28.2661 49.3575 28.1637C49.2789 28.0852 49.1968 27.9658 49.1729 27.8975C49.1489 27.8292 49.0737 27.7234 49.0053 27.6654C48.9369 27.6074 48.865 27.5494 48.8513 27.5357C48.8377 27.5221 48.7898 27.4436 48.7453 27.3583C48.6974 27.2593 48.6222 27.1774 48.5367 27.1296C48.4648 27.0886 48.3828 27.0135 48.3554 26.9589C48.2802 26.8088 48.1433 26.6825 48.0202 26.6415C47.9586 26.621 47.8971 26.5733 47.8868 26.5391C47.856 26.4436 47.6645 26.2729 47.5448 26.232C47.4866 26.2115 47.4011 26.1501 47.3601 26.092C47.2677 25.9692 47.0933 25.8565 46.9907 25.8565C46.9462 25.8565 46.8847 25.8122 46.8402 25.7507C46.7615 25.6415 46.5392 25.5187 46.4127 25.5152C46.375 25.5152 46.3066 25.4743 46.2587 25.4265C46.1459 25.3071 46.0159 25.2422 45.8757 25.2422C45.8004 25.2422 45.7354 25.2149 45.6944 25.1705C45.5952 25.0579 45.4584 25.0033 45.2942 25.0033C45.195 25.0033 45.1266 24.9828 45.0958 24.9453C45.024 24.8634 44.8462 24.7985 44.682 24.7985C44.5931 24.7985 44.487 24.7712 44.4152 24.7234C44.3297 24.6722 44.2305 24.6483 44.0732 24.6449C43.95 24.6415 43.7824 24.6108 43.6969 24.5801C43.5772 24.5323 43.5191 24.5289 43.4096 24.5562C43.307 24.5801 43.2523 24.5767 43.1805 24.5391C43.071 24.4845 42.8008 24.4743 42.7085 24.5221C42.6674 24.546 42.599 24.5391 42.493 24.4982C42.3459 24.447 42.322 24.447 42.151 24.5016C42.0073 24.546 41.9389 24.5494 41.8329 24.5221C41.72 24.4948 41.6619 24.4982 41.5421 24.5425C41.4498 24.5767 41.3027 24.5972 41.1727 24.5937C41.0086 24.5903 40.9299 24.6074 40.8376 24.6586C40.7589 24.7064 40.6563 24.7303 40.5434 24.7303C40.4271 24.7303 40.3211 24.7576 40.2116 24.8122C40.1261 24.86 39.9825 24.9009 39.8901 24.9111C39.7875 24.9214 39.6781 24.9623 39.5926 25.0204C39.5173 25.075 39.4489 25.1091 39.4387 25.1023C39.3873 25.0511 38.9461 23.8497 38.9598 23.7951C38.9667 23.7541 38.888 23.4845 38.7785 23.1944L38.5836 22.6654L38.2142 22.6552L37.8448 22.6449L37.7353 22.5221C37.6327 22.4094 37.513 22.1705 37.5096 22.0784C37.5062 22.0579 37.5575 22.0272 37.619 22.0169C37.6772 22.0033 37.8448 21.9453 37.985 21.8907C38.6862 21.6142 39.0693 21.2183 39.23 20.5937C39.3497 20.1262 39.3805 18.7951 39.2813 18.4026C39.2608 18.3309 39.2505 18.2661 39.2608 18.2593C39.2676 18.2524 39.3463 18.2695 39.4387 18.3036C39.5891 18.3514 39.6062 18.3514 39.6439 18.3036C39.6781 18.2558 39.7054 18.2593 39.9072 18.3275C40.0304 18.3685 40.2287 18.4606 40.345 18.5323L40.5571 18.662L40.6529 18.5494C40.7076 18.4845 40.7521 18.4231 40.7555 18.4094C40.7555 18.3685 40.4682 18.1398 40.3108 18.0579C40.2253 18.0169 40.0919 17.9623 40.0133 17.9384C39.9312 17.9145 39.8662 17.8736 39.8662 17.8463C39.8662 17.8224 39.8115 17.7166 39.7431 17.6142L39.6199 17.4299L39.7089 17.3241C39.8183 17.191 39.8457 17.092 39.8251 16.9009C39.8012 16.7132 39.7157 16.5937 39.5378 16.505C39.2916 16.3855 39.2369 16.4026 38.5767 16.8224C38.3168 16.9862 37.8961 17.191 37.0752 17.5494C36.0081 18.0135 35.9294 18.0408 35.8747 17.9896C35.7687 17.8838 35.283 18.0067 35.1291 18.1773C35.0743 18.2388 35.0812 18.2729 35.2659 18.8599C35.4335 19.3992 35.4574 19.5084 35.4506 19.7234C35.4472 19.8599 35.4608 20.0135 35.4848 20.0647C35.5361 20.1944 35.5327 20.2593 35.4745 20.2593C35.4506 20.2593 33.2 20.8122 30.474 21.4913C25.1281 22.8156 23.3222 23.2627 23.2811 23.2627C23.2674 23.2627 23.2401 23.2012 23.2195 23.1262L23.1853 22.9896L23.3803 22.935L23.5753 22.8804L23.5958 22.6722C23.606 22.5562 23.6026 22.4504 23.5889 22.4333C23.5753 22.4197 23.4419 22.447 23.2914 22.4913C23.1443 22.5357 23.0177 22.5698 23.0143 22.5664C23.0109 22.563 22.7646 21.7371 22.4739 20.7337C22.1798 19.7302 21.8001 18.4367 21.6325 17.8599C21.4615 17.2797 21.3315 16.7951 21.3452 16.7849C21.3555 16.7712 21.8788 16.761 22.5013 16.761C23.4658 16.761 23.6779 16.7712 23.9036 16.8224C24.3004 16.9111 24.5671 16.9316 24.6287 16.8804C24.7724 16.761 24.615 16.563 24.2662 16.4333C23.9036 16.2968 23.4761 16.2593 21.7899 16.2319C20.2439 16.2046 19.8369 16.1773 19.122 16.0613C19.0091 16.0408 18.6945 16.0169 18.4209 16.0101C18.0173 15.993 17.901 15.9999 17.8018 16.0442ZM37.6738 18.3616C37.7046 18.3992 37.7422 18.4026 37.8243 18.3787C37.9884 18.3343 37.9919 18.3343 38.2279 18.5152C38.4262 18.6654 38.4707 18.6859 38.6793 18.7064L38.9153 18.7337L39.0453 18.604C39.1753 18.4743 39.1787 18.4743 39.1958 18.5562C39.2369 18.7644 39.2471 19.4504 39.2163 19.877C39.1274 21.0033 38.8401 21.4333 37.9303 21.7951C37.7969 21.8497 37.6362 21.9009 37.5677 21.9146C37.4549 21.935 37.448 21.9316 37.3967 21.8019L37.3454 21.6688L37.6293 21.6449C38.5938 21.5733 39.1719 20.9214 39.1 19.993C39.0727 19.6518 39.0282 19.5118 38.8572 19.2524C38.7101 19.034 38.1834 18.4948 38.0397 18.4163C37.855 18.3173 37.9269 18.4231 38.3168 18.8122C38.5391 19.0374 38.7717 19.3036 38.8298 19.406C39.0419 19.7644 39.059 20.4094 38.8709 20.778C38.7785 20.9623 38.5254 21.2251 38.3476 21.3309C38.1424 21.4504 37.8516 21.5255 37.5575 21.5323L37.2975 21.5391L36.9145 20.5289C36.7024 19.9726 36.4869 19.4538 36.4356 19.3753C36.3809 19.2934 36.3159 19.1603 36.292 19.075L36.2441 18.9214L36.7127 18.7029C36.9692 18.5835 37.2599 18.447 37.3523 18.4026C37.5506 18.3036 37.619 18.2968 37.6738 18.3616ZM34.7357 21.7098C34.7357 21.7268 27.1597 31.0306 26.8109 31.4436L26.6604 31.6211L26.4996 31.5699C26.4107 31.5426 26.1508 31.5084 25.9216 31.4982C25.689 31.488 25.5009 31.4743 25.5009 31.4709C25.5009 31.4641 24.2217 26.7746 23.7873 25.1808C23.671 24.761 23.5855 24.4094 23.5992 24.3992C23.6437 24.3548 33.4052 21.9316 34.4108 21.7166C34.51 21.6927 34.7357 21.6893 34.7357 21.7098ZM22.7236 24.9248C22.7544 25.034 22.751 25.0852 22.6962 25.2422C22.5697 25.604 22.6142 25.8122 22.9493 26.3992C23.2093 26.8531 23.4555 27.5391 23.842 28.9112C24.0233 29.5494 24.2627 30.3924 24.3722 30.7849C24.4851 31.1808 24.5706 31.505 24.5671 31.5118C24.5603 31.5153 24.3072 31.5323 24.0028 31.5426L23.4487 31.5665V31.3822C23.4487 31.2593 23.4248 31.1603 23.3803 31.0852C23.3324 31.0067 23.3119 30.9214 23.3153 30.7883C23.3187 30.6415 23.3016 30.5733 23.2366 30.4709C23.1785 30.389 23.1443 30.2798 23.134 30.1535C23.1238 30.017 23.093 29.9316 23.028 29.8429C22.9767 29.7781 22.9357 29.6825 22.9357 29.6313C22.9357 29.5016 22.857 29.3344 22.751 29.2388C22.7031 29.191 22.662 29.1193 22.662 29.075C22.662 28.9419 22.556 28.7269 22.4568 28.6552C22.3918 28.6074 22.3576 28.546 22.3405 28.4504C22.3234 28.3446 22.279 28.2729 22.1695 28.1671C22.0908 28.0886 22.0053 27.9658 21.9814 27.8975C21.9575 27.8292 21.8822 27.7234 21.8138 27.6654C21.7454 27.6074 21.6736 27.5494 21.6599 27.5357C21.6462 27.5221 21.5983 27.4436 21.5539 27.3583C21.506 27.2593 21.4307 27.1774 21.3452 27.1296C21.2734 27.0886 21.1913 27.0135 21.1639 26.9589C21.1366 26.9077 21.0682 26.8122 21.01 26.7507L20.904 26.6415L21.0066 26.5289C22.0361 25.4163 22.6244 24.7985 22.662 24.7985C22.6757 24.7985 22.7031 24.8565 22.7236 24.9248ZM23.1546 26.4709C23.1682 26.5187 23.1238 26.4641 23.0554 26.3548C22.7544 25.8668 22.6894 25.6518 22.7646 25.3787L22.8057 25.2251L22.9699 25.8053C23.0588 26.1228 23.1409 26.4231 23.1546 26.4709ZM15.7188 26.3617C15.7188 26.4026 15.2776 30.3344 15.2639 30.3958C15.2605 30.4231 15.2194 30.1944 15.175 29.8839C15.1339 29.5733 15.0074 28.6791 14.8945 27.8941C14.7851 27.1091 14.6927 26.4367 14.6927 26.3992C14.6927 26.3378 14.7235 26.3344 15.2058 26.3344C15.4896 26.3344 15.7188 26.348 15.7188 26.3617ZM16.3858 26.4231C16.8338 26.4948 16.8236 26.4914 16.803 26.6381C16.7928 26.7064 16.6594 27.3446 16.5055 28.0579C16.355 28.7712 16.16 29.6859 16.0745 30.0886C15.9343 30.7576 15.7735 31.249 15.6983 31.249C15.6846 31.249 15.6572 31.2217 15.6333 31.191C15.5957 31.1398 15.5786 31.1364 15.5033 31.1774C15.4554 31.2013 15.4007 31.2149 15.3836 31.2013C15.3631 31.191 15.3392 31.0682 15.3255 30.9316C15.3084 30.7405 15.3563 30.2115 15.5444 28.5528C15.6778 27.3787 15.7872 26.4026 15.7872 26.3821C15.7872 26.3378 15.8932 26.3446 16.3858 26.4231ZM42.9103 26.3617C42.9103 26.3821 42.534 29.7405 42.4759 30.2183C42.4656 30.3173 42.4519 30.3924 42.4485 30.389C42.4383 30.3787 42.4109 30.1944 42.1065 28.0443C41.9834 27.174 41.8842 26.4333 41.8842 26.3958C41.8842 26.3378 41.9218 26.3344 42.3972 26.3344C42.6811 26.3344 42.9103 26.3446 42.9103 26.3617ZM43.5772 26.4231C44.0321 26.4948 44.015 26.4879 43.9911 26.6484C43.9774 26.7269 43.844 27.3651 43.6935 28.0716C43.543 28.7781 43.3515 29.6859 43.266 30.0886C43.1189 30.7849 43.0984 30.8463 42.8829 31.2934C42.7221 31.6279 42.6503 31.7473 42.6332 31.703C42.623 31.6688 42.5853 31.4333 42.5511 31.1808L42.493 30.72L42.7358 28.563C42.8692 27.3753 42.9787 26.389 42.9787 26.3719C42.9787 26.3378 43.1155 26.348 43.5772 26.4231ZM14.7577 27.4163C14.8364 27.9965 14.9766 28.9828 15.0655 29.6142C15.2058 30.5767 15.2263 30.7951 15.1989 30.976C15.1852 31.0955 15.1647 31.2013 15.1545 31.2081C15.1442 31.2183 15.0963 31.2081 15.045 31.1842C14.9629 31.1467 14.9458 31.1501 14.8911 31.2149C14.8295 31.29 14.8295 31.29 14.7132 31.0409C14.6243 30.8531 14.4943 30.3753 14.2139 29.2013C14.0018 28.3275 13.7727 27.3787 13.7008 27.092L13.5709 26.5699L13.6461 26.5391C13.7624 26.4948 14.3609 26.3821 14.5217 26.3719L14.6106 26.3685L14.7577 27.4163ZM41.9321 27.2968C42.0039 27.8088 42.1373 28.7644 42.233 29.4231C42.3801 30.447 42.4006 30.6654 42.3835 30.9419C42.3493 31.4914 42.322 31.761 42.298 31.761C42.2878 31.761 42.1646 31.5426 42.0312 31.2729C41.7918 30.8088 41.7747 30.7576 41.5969 30.0033C41.3438 28.935 41.0496 27.72 40.8923 27.092L40.7623 26.5699L40.8376 26.5426C40.9538 26.4948 41.5524 26.3821 41.7132 26.3719L41.8021 26.3685L41.9321 27.2968ZM17.4119 26.6893C17.6513 26.7712 17.8531 26.8497 17.8668 26.86C17.8873 26.8804 16.0916 30.5289 16.0677 30.5118C16.0608 30.5084 16.1634 29.9999 16.2968 29.3856C16.4268 28.7678 16.6184 27.8736 16.7175 27.4026C16.8304 26.8634 16.9125 26.5391 16.9399 26.5391C16.9604 26.5391 17.1759 26.6074 17.4119 26.6893ZM44.6033 26.6893C44.8427 26.7712 45.0445 26.8497 45.0582 26.86C45.0787 26.8838 43.2797 30.5289 43.2557 30.5118C43.2489 30.505 43.2831 30.3207 43.3344 30.0989C43.4336 29.6449 43.9329 27.2934 44.0287 26.8361C44.0629 26.662 44.104 26.5391 44.1313 26.5391C44.1518 26.5391 44.3673 26.6074 44.6033 26.6893ZM13.9402 28.3651C14.1694 29.3207 14.3849 30.2115 14.4191 30.3378C14.4533 30.4675 14.467 30.5596 14.4533 30.5426C14.4294 30.5153 12.8184 27.505 12.6268 27.1296L12.5379 26.9521L12.6474 26.8941C12.8286 26.7985 13.4751 26.5767 13.499 26.6006C13.5093 26.6142 13.7077 27.406 13.9402 28.3651ZM40.7726 26.8804C40.8376 27.1637 41.6003 30.3037 41.6311 30.4129C41.6858 30.6211 41.5421 30.2729 41.1899 29.3378C40.971 28.7644 40.6631 27.9521 40.5024 27.5323C40.3416 27.1091 40.2185 26.7576 40.2287 26.7473C40.2664 26.7064 40.67 26.5835 40.6905 26.604C40.7007 26.6142 40.7384 26.7405 40.7726 26.8804ZM18.1917 27.0204C18.4345 27.1432 18.8655 27.3924 18.8655 27.4129C18.8655 27.4197 18.6671 27.7439 18.4209 28.1364L17.9762 28.8463L16.9809 29.9112C16.4337 30.4982 15.9753 30.9726 15.9651 30.9624C15.9446 30.9419 16.0027 30.8224 17.1553 28.5084C17.5966 27.6313 17.9591 26.9146 17.966 26.9146C17.9728 26.9146 18.0754 26.9623 18.1917 27.0204ZM45.3558 27.0033C45.6021 27.133 46.057 27.3958 46.057 27.4129C46.057 27.4197 45.5336 28.2661 44.8906 29.2934L43.7243 31.1637L43.3583 31.5118C43.1599 31.703 42.9855 31.86 42.9753 31.86C42.965 31.8634 43.006 31.6381 43.0676 31.3583L43.1771 30.8566L44.1621 28.8839C44.7025 27.8019 45.154 26.9146 45.1643 26.9146C45.1745 26.9146 45.2634 26.9555 45.3558 27.0033ZM13.5264 28.9692C14.1284 30.1023 14.573 30.9726 14.5935 31.0682C14.6448 31.29 14.5901 31.4368 14.4704 31.406C14.4157 31.3924 14.378 31.4026 14.3609 31.4333C14.337 31.4743 14.3028 31.4607 14.1797 31.3583C14.0702 31.2661 13.7008 30.7405 12.8184 29.4095C12.1514 28.406 11.6008 27.563 11.5905 27.5426C11.5631 27.4743 12.4251 26.9555 12.4729 27.0101C12.4866 27.0238 12.9586 27.9043 13.5264 28.9692ZM39.3497 28.1023C39.5036 28.4811 39.6268 28.8019 39.6268 28.8122C39.6268 28.8395 38.8059 27.6006 38.782 27.5426C38.758 27.4811 39.018 27.3139 39.0487 27.3685C39.0624 27.389 39.1992 27.72 39.3497 28.1023ZM18.7218 28.0545C18.4893 28.3036 18.2977 28.505 18.2909 28.5016C18.2806 28.4948 18.4619 28.2013 18.821 27.6381L18.9339 27.4572L19.0365 27.5289L19.1391 27.604L18.7218 28.0545ZM46.6316 27.8429C46.7855 27.9726 46.912 28.092 46.912 28.1057C46.912 28.1296 44.7846 30.1671 44.1142 30.7883C43.9466 30.9419 44.015 30.8258 44.9146 29.389C45.455 28.5255 45.9475 27.7371 46.0125 27.6381L46.1254 27.4572L46.2382 27.5323C46.2964 27.5767 46.4742 27.7132 46.6316 27.8429ZM12.6303 29.2525C13.2322 30.1535 13.735 30.9146 13.7521 30.9419C13.7658 30.9692 13.7282 30.9453 13.6632 30.8873C13.5982 30.8292 12.9244 30.2252 12.1617 29.5426C11.399 28.8634 10.7628 28.29 10.7457 28.2763C10.7012 28.2388 10.8107 28.1228 11.1835 27.8122C11.3511 27.6722 11.4981 27.5699 11.5118 27.5869C11.5255 27.6006 12.0283 28.3514 12.6303 29.2525ZM39.254 28.3992C39.7807 29.1876 39.8354 29.29 40.1877 30.191L40.2493 30.3446L40.1501 30.2559C40.0988 30.2081 39.5926 29.7576 39.0282 29.2525C38.4639 28.7507 37.9816 28.3173 37.9542 28.2934C37.9098 28.2525 37.9132 28.2354 37.9884 28.1569C38.1526 27.9794 38.6793 27.5596 38.7033 27.5869C38.717 27.6006 38.9667 27.9658 39.254 28.3992ZM19.5632 28.1159C19.0262 28.7576 18.6945 29.1125 18.3114 29.4743C17.8736 29.8839 17.8668 29.8873 18.1301 29.604C19.057 28.5972 19.6043 28.0135 19.6282 28.0101C19.6453 28.0067 19.6145 28.0579 19.5632 28.1159ZM19.9634 28.3378C20.1618 28.5426 20.473 28.9248 20.4696 28.9555C20.4662 28.9965 17.104 31.6006 16.9262 31.6996C16.6868 31.8361 16.4371 31.8224 16.4371 31.6723C16.4371 31.6313 16.4234 31.5869 16.4063 31.5733C16.3447 31.5391 16.5055 31.3275 16.721 31.1603C17.2614 30.7371 17.966 30.075 18.4995 29.4914C18.8758 29.075 19.7582 28.1774 19.789 28.1774C19.7992 28.1774 19.8779 28.249 19.9634 28.3378ZM47.1549 28.3378C47.3532 28.5426 47.6645 28.9248 47.6611 28.9555C47.6611 28.9692 46.8812 29.5869 45.927 30.3241L44.1929 31.6723L43.7175 31.8873C43.4575 32.0067 43.2386 32.0989 43.2318 32.0955C43.2284 32.0886 43.3446 31.8941 43.4917 31.6586L43.7585 31.232L45.3626 29.7064C46.2416 28.8668 46.9702 28.1808 46.9804 28.1774C46.9907 28.1774 47.0694 28.249 47.1549 28.3378ZM12.3019 29.7644C13.8616 31.1569 14.2276 31.5221 14.1455 31.604C14.1284 31.6211 14.1113 31.6723 14.1113 31.7132C14.1113 31.7712 14.0805 31.7985 13.995 31.8293C13.9026 31.86 13.8547 31.8531 13.7213 31.7951C13.6016 31.7439 10.2361 29.3173 10.0274 29.1296C10.0103 29.1159 10.0343 29.0545 10.0787 28.9897C10.2087 28.7985 10.6225 28.3139 10.6533 28.3139C10.6704 28.3139 11.4126 28.9658 12.3019 29.7644ZM39.1035 29.4197L40.3279 30.5221L40.5605 31.1125C40.6871 31.4368 40.7863 31.7098 40.776 31.7166C40.7623 31.7303 37.3523 29.249 37.2189 29.1296C37.2018 29.1159 37.2257 29.0545 37.2702 28.9897C37.4001 28.7985 37.8174 28.3139 37.8482 28.3139C37.8619 28.3139 38.4262 28.8122 39.1035 29.4197ZM20.6372 29.174C20.8356 29.4675 21.0613 29.8907 21.034 29.9146C21.0169 29.9282 20.2507 30.2695 19.3307 30.6688C18.4072 31.0682 17.5692 31.4333 17.4666 31.4777C17.3606 31.5255 17.2887 31.5494 17.3024 31.5357C17.3674 31.4709 20.4936 29.034 20.5141 29.034C20.5278 29.0306 20.5825 29.0955 20.6372 29.174ZM47.8287 29.174C48.0168 29.4504 48.2528 29.8907 48.222 29.918C48.2083 29.9282 47.449 30.2661 46.5358 30.662C45.6226 31.0579 44.7846 31.4231 44.6717 31.4709C44.5589 31.5221 44.4768 31.5494 44.4939 31.5357C44.5554 31.4709 47.685 29.034 47.7055 29.034C47.7192 29.0306 47.7739 29.0955 47.8287 29.174ZM11.6281 30.3924C12.5037 31.0374 13.2186 31.5733 13.2117 31.5767C13.2015 31.5903 9.49385 30.0989 9.46648 30.0716C9.44596 30.0511 9.5862 29.7678 9.78457 29.4299C9.89402 29.2422 9.95559 29.174 9.98637 29.191C10.0103 29.2081 10.7491 29.7473 11.6281 30.3924ZM38.8162 30.3924C39.6952 31.0374 40.41 31.5733 40.4032 31.5767C40.3895 31.5903 36.6853 30.0989 36.6579 30.0716C36.6306 30.0477 36.7263 29.8566 36.9452 29.4811C37.0786 29.2593 37.147 29.174 37.1778 29.191C37.2018 29.2081 37.9406 29.7473 38.8162 30.3924ZM21.2666 30.3856C21.3521 30.6074 21.4307 30.8258 21.441 30.8736C21.4615 30.9589 21.4547 30.9624 20.2747 31.3412L19.0878 31.7234L18.2191 31.761C17.2169 31.8019 16.9638 31.8019 16.9946 31.7746C17.0254 31.7439 21.0271 29.9931 21.0716 29.9897C21.0921 29.9862 21.1776 30.1671 21.2666 30.3856ZM48.4238 30.3037C48.5606 30.6449 48.6632 30.9453 48.6495 30.9589C48.6427 30.9624 47.7021 31.2695 46.5529 31.6415L44.4665 32.3207L43.9535 32.3583C43.673 32.3787 43.4336 32.3924 43.4267 32.3856C43.4199 32.3822 43.4575 32.3412 43.5088 32.3002C44.1245 31.8122 44.2134 31.7542 44.6204 31.5733C46.0946 30.9214 48.2357 29.9897 48.2631 29.9897C48.2836 29.9862 48.3554 30.1296 48.4238 30.3037ZM11.4981 30.9794C12.8526 31.5255 13.5914 31.8395 13.7042 31.9214C13.7966 31.9862 13.8718 32.0477 13.8718 32.0579C13.8718 32.0682 13.8479 32.0955 13.8171 32.1194C13.7692 32.1535 13.7658 32.1705 13.8034 32.2388C13.8684 32.3617 13.7761 32.4129 13.5161 32.389C13.3451 32.3719 9.13471 31.174 9.08683 31.1262C9.04921 31.0886 9.37756 30.1569 9.42886 30.1569C9.44596 30.1569 10.3763 30.5255 11.4981 30.9794ZM38.693 30.9794C39.8183 31.4333 40.7692 31.8293 40.8034 31.86C40.8649 31.9112 40.9881 32.1569 41.0462 32.3378L41.0701 32.4163L40.7863 32.3924C40.5571 32.3753 40.0611 32.2422 38.3955 31.7542C37.2394 31.4163 36.2851 31.1364 36.2783 31.1262C36.2372 31.0886 36.5656 30.1569 36.6203 30.1569C36.6374 30.1569 37.5712 30.5255 38.693 30.9794ZM21.547 31.2661C21.5949 31.4641 21.6154 31.6211 21.5949 31.6279C21.5675 31.6381 19.4264 31.7166 19.4196 31.7098C19.4025 31.6961 21.3657 31.0511 21.4341 31.0477C21.4752 31.0443 21.506 31.1023 21.547 31.2661ZM48.7351 31.2559C48.7966 31.5084 48.8787 32.0272 48.8582 32.0443C48.8411 32.0613 44.8154 32.3071 44.8017 32.2934C44.7949 32.29 45.048 32.2013 45.3626 32.0989C45.6807 31.9965 46.529 31.72 47.2541 31.4845C47.9792 31.2456 48.5948 31.0511 48.6256 31.0477C48.6666 31.0443 48.6974 31.1023 48.7351 31.2559ZM42.534 31.5596C42.5717 31.8702 42.5717 31.9316 42.5238 32.017L42.4725 32.1159L42.4177 32.0067C42.3664 31.9112 42.3664 31.8566 42.4041 31.505C42.4246 31.2866 42.4554 31.1296 42.4656 31.1535C42.4793 31.1774 42.5101 31.3617 42.534 31.5596ZM11.0398 31.7849C12.107 32.0989 12.9757 32.3583 12.9723 32.3651C12.9586 32.3753 8.89871 32.2354 8.88503 32.2217C8.87135 32.2081 8.9808 31.4914 9.01842 31.3412C9.03553 31.2729 9.06289 31.2149 9.07657 31.2149C9.09025 31.2149 9.97269 31.4709 11.0398 31.7849ZM38.2826 31.8019C39.3224 32.1057 40.1672 32.3583 40.1638 32.3651C40.1501 32.3753 36.0902 32.2354 36.0765 32.2217C36.0628 32.2081 36.1723 31.4914 36.2099 31.3412C36.2407 31.2286 36.2578 31.2115 36.3193 31.2286C36.3604 31.2388 37.2462 31.4948 38.2826 31.8019ZM42.941 31.6108C42.8795 31.8975 42.8453 31.9931 42.7769 32.0579L42.6879 32.1364L42.6777 32.0101C42.6674 31.9112 42.7016 31.8054 42.8282 31.5494C42.9171 31.3651 42.9992 31.2217 43.006 31.232C43.0129 31.2388 42.9855 31.4095 42.941 31.6108ZM42.2741 32.0204C42.2536 32.0989 42.2262 32.0477 42.086 31.6893C41.9936 31.4572 41.9184 31.2593 41.9184 31.249C41.9184 31.2388 42.0039 31.389 42.1065 31.5801C42.2536 31.8531 42.2912 31.9521 42.2741 32.0204ZM43.3104 31.819C43.1771 32.0272 43.0573 32.1705 42.9992 32.1979C42.8726 32.2525 42.8726 32.2525 42.8966 32.1432C42.9171 32.0613 43.4883 31.4368 43.5191 31.4675C43.5259 31.4743 43.4302 31.6313 43.3104 31.819ZM14.2823 31.5391C14.3062 31.5699 14.3096 31.5903 14.2891 31.5903C14.272 31.5903 14.2481 31.5665 14.2344 31.5391C14.2241 31.5118 14.2207 31.488 14.2276 31.488C14.2344 31.488 14.2583 31.5118 14.2823 31.5391ZM24.6458 31.7405C24.6458 31.7678 24.6561 31.8122 24.6663 31.8429C24.6834 31.8839 24.6663 31.8975 24.6048 31.8975C24.5466 31.8975 24.5056 31.9248 24.4816 31.9828C24.4577 32.034 24.4132 32.0682 24.3688 32.0682C24.3209 32.0682 24.2867 32.1023 24.2593 32.1705C24.2388 32.2286 24.1909 32.2729 24.1499 32.2798C24.1054 32.2866 24.0712 32.3275 24.0507 32.3958C24.0336 32.4538 23.9857 32.5153 23.9481 32.5323C23.907 32.5494 23.8728 32.6006 23.866 32.6586C23.8591 32.7098 23.8249 32.7678 23.7873 32.7849C23.7463 32.8088 23.7223 32.8566 23.7223 32.918C23.7223 32.9726 23.6984 33.034 23.671 33.0579C23.6437 33.0818 23.6197 33.1535 23.6197 33.2149C23.6197 33.2798 23.606 33.331 23.5889 33.331C23.5411 33.331 23.5171 32.8531 23.5616 32.6927C23.5924 32.5665 23.5924 32.5153 23.5445 32.389C23.5034 32.2695 23.4966 32.2081 23.5274 32.0989C23.5513 32.0033 23.5513 31.9248 23.524 31.8463L23.4898 31.7303L23.736 31.7166C24.4064 31.6859 24.6458 31.6927 24.6458 31.7405ZM21.6633 31.9316L21.6736 32.0511L19.6453 32.1774C18.5337 32.249 17.6171 32.3002 17.6102 32.2934C17.6034 32.29 17.8668 32.1979 18.1917 32.0921L18.78 31.9009L20.0284 31.8531C20.7159 31.8258 21.3623 31.8054 21.4649 31.8088L21.653 31.8122L21.6633 31.9316ZM18.4824 31.9146C18.4722 31.9248 18.178 32.0238 17.8257 32.1364C17.0014 32.3992 16.7073 32.4129 16.7654 32.1876C16.7825 32.1159 16.7723 32.0818 16.7278 32.0477C16.6799 32.0101 16.6765 31.9999 16.7141 31.9862C16.7415 31.976 17.1246 31.9555 17.5658 31.9385C18.007 31.9214 18.4003 31.9043 18.4345 31.9043C18.4722 31.9009 18.4927 31.9043 18.4824 31.9146ZM43.5772 32.1535C43.3412 32.3344 43.2147 32.4095 43.1428 32.4095C42.9239 32.4095 43.0984 32.2388 43.5088 32.0545C43.6969 31.9692 43.8645 31.9009 43.8816 31.9009C43.8953 31.8975 43.7585 32.0136 43.5772 32.1535ZM21.7043 32.6518V33.1706L21.3213 33.1501C21.1092 33.1398 20.0352 33.0374 18.9339 32.9248C17.1417 32.7371 16.9296 32.7098 16.868 32.6484C16.7825 32.5665 16.8099 32.5392 17.0493 32.4607C17.193 32.4129 17.6923 32.3719 19.2041 32.2729C20.2883 32.2013 21.2939 32.1432 21.441 32.1398L21.7043 32.1364V32.6518ZM42.8419 32.1501C42.8419 32.1603 42.8282 32.1774 42.8077 32.1876C42.7906 32.1979 42.7735 32.191 42.7735 32.174C42.7735 32.1535 42.7906 32.1364 42.8077 32.1364C42.8282 32.1364 42.8419 32.1432 42.8419 32.1501ZM48.8958 32.6484V33.1603H48.718C48.6188 33.1603 47.6303 33.1296 46.5187 33.0921L44.5007 33.0238L43.9945 32.8804C43.7175 32.802 43.502 32.7269 43.5157 32.7132C43.5328 32.703 43.7414 32.6245 43.9842 32.546L44.4255 32.3992L46.3956 32.2729C47.4798 32.2013 48.4854 32.1432 48.6324 32.1398L48.8958 32.1364V32.6484ZM43.0129 32.3071C43.0129 32.3241 42.9958 32.3412 42.9753 32.3412C42.9582 32.3412 42.9513 32.3241 42.9616 32.3071C42.9718 32.2866 42.9889 32.2729 42.9992 32.2729C43.006 32.2729 43.0129 32.2866 43.0129 32.3071ZM10.5541 32.3583C11.3169 32.3856 12.2335 32.4163 12.5892 32.4265C12.9484 32.4368 13.2904 32.4538 13.352 32.4641L13.4682 32.4811L13.3178 32.5767C13.1809 32.6654 12.88 32.9453 12.88 32.9863C12.8765 33.0989 12.8115 33.1057 10.862 33.2286C9.78799 33.2934 8.90213 33.3446 8.89187 33.3344C8.88503 33.3275 8.87819 33.0921 8.87819 32.8122V32.3071H9.02526C9.10393 32.3071 9.79141 32.331 10.5541 32.3583ZM38.3442 32.3787L40.4989 32.4504L40.8341 32.5528C41.1043 32.6313 41.1762 32.6688 41.207 32.7371C41.2275 32.7815 41.2377 32.8258 41.2309 32.8327C41.2241 32.8395 41.0701 32.8941 40.8923 32.9521L40.5674 33.0647L38.3442 33.2081C37.1231 33.2866 36.1107 33.348 36.097 33.3412C36.0799 33.3344 36.0696 33.0989 36.0696 32.8156C36.0696 32.3549 36.0765 32.3071 36.1312 32.3071C36.162 32.3071 37.1607 32.3378 38.3442 32.3787ZM44.104 32.4231C44.0971 32.4299 43.9193 32.4914 43.7106 32.5596C43.4438 32.645 43.3002 32.6757 43.2215 32.662C43.095 32.6347 43.0915 32.6176 43.2044 32.5357C43.2831 32.4777 43.3617 32.4641 44.0527 32.4129C44.0903 32.4129 44.1108 32.4163 44.104 32.4231ZM41.1146 32.5118C41.1385 32.5494 41.0838 32.5494 40.9607 32.5118C40.8786 32.4845 40.8786 32.4845 40.9846 32.4811C41.0428 32.4777 41.1043 32.4914 41.1146 32.5118ZM43.1497 32.4914C43.1497 32.5016 43.136 32.5187 43.1155 32.5289C43.0984 32.5392 43.0813 32.5323 43.0813 32.5153C43.0813 32.4948 43.0984 32.4777 43.1155 32.4777C43.136 32.4777 43.1497 32.4845 43.1497 32.4914ZM13.735 32.5801C13.7761 32.604 13.7761 32.6211 13.7213 32.6791C13.6598 32.7439 13.6598 32.7542 13.7145 32.8361C13.7692 32.9214 13.7692 32.9248 13.6769 32.9589C13.4751 33.034 13.1809 33.0955 13.0578 33.0852L12.9313 33.075L13.1194 32.8873C13.287 32.7166 13.5572 32.546 13.6495 32.546C13.67 32.546 13.7077 32.5596 13.735 32.5801ZM44.0971 33.0067C44.1142 33.0204 44.0971 33.0238 44.0629 33.0136C44.0287 32.9999 43.844 32.9897 43.6525 32.9897C43.3344 32.9897 43.2933 32.9828 43.201 32.9078L43.0984 32.8258L43.2147 32.7951C43.307 32.7712 43.4096 32.7883 43.7004 32.8702C43.9056 32.9316 44.0834 32.9897 44.0971 33.0067ZM41.3027 32.9726C41.3027 33.0067 41.2685 33.0238 41.2104 33.0238C41.1556 33.0238 41.053 33.0306 40.9778 33.0409L40.841 33.0579L41.012 32.9931C41.2241 32.9112 41.3027 32.9043 41.3027 32.9726ZM43.5909 33.2866C43.7619 33.4095 43.8987 33.5187 43.8919 33.5221C43.8782 33.5392 43.2078 33.2627 43.1565 33.2183C43.1326 33.1979 43.095 33.1535 43.0779 33.1194C43.0471 33.0647 43.0573 33.0579 43.1599 33.0579C43.2523 33.0579 43.3481 33.1091 43.5909 33.2866ZM46.5632 33.7132C47.7261 34.0511 48.6803 34.3344 48.6872 34.3412C48.7077 34.3617 48.6188 34.6586 48.4922 34.9965C48.3862 35.2764 48.3622 35.3139 48.3007 35.3002C48.2596 35.2934 47.3327 34.9214 46.2348 34.4811L44.2373 33.6723L43.8577 33.3958C43.6456 33.2422 43.4609 33.1023 43.4404 33.0818C43.4165 33.0613 43.5875 33.0579 43.9295 33.0716L44.4562 33.0955L46.5632 33.7132ZM41.3814 33.1569C41.3951 33.2115 41.3267 33.2798 41.0667 33.4777C40.7486 33.7235 40.6836 33.7542 38.7272 34.604C37.6225 35.0886 36.7058 35.4811 36.6921 35.4811C36.6477 35.4811 36.2783 34.5357 36.3125 34.5119C36.3193 34.5084 36.935 34.3105 37.6772 34.0682C38.4194 33.8293 39.36 33.5255 39.7636 33.389C40.3416 33.2013 40.5605 33.1432 40.7897 33.1262C41.3267 33.0818 41.3609 33.0852 41.3814 33.1569ZM47.083 33.1808C48.051 33.2115 48.8548 33.2491 48.8684 33.2593C48.8958 33.2832 48.8137 33.9043 48.7556 34.1228C48.7385 34.1944 48.7077 34.2525 48.6906 34.2525C48.6564 34.2525 44.8325 33.1364 44.7743 33.1091C44.7572 33.1023 44.8701 33.1023 45.0309 33.1091C45.1916 33.1194 46.1151 33.1501 47.083 33.1808ZM13.7966 33.1569C13.8274 33.174 13.8342 33.2149 13.8171 33.2798C13.8 33.3514 13.8069 33.3856 13.8513 33.4163C13.8992 33.4538 13.8855 33.4743 13.7282 33.5938C13.5401 33.7371 12.8936 34.0374 12.856 33.9999C12.8218 33.9658 12.8013 33.6177 12.8252 33.4538L12.8492 33.2968L13.1125 33.2149C13.3759 33.133 13.7145 33.1023 13.7966 33.1569ZM13.0065 33.1808C12.9962 33.191 12.9655 33.1944 12.9415 33.1842C12.9142 33.174 12.9244 33.1637 12.962 33.1637C12.9997 33.1603 13.0202 33.1706 13.0065 33.1808ZM40.1911 33.1808C40.068 33.2286 36.3535 34.4231 36.3193 34.4231C36.2714 34.4231 36.2612 34.389 36.1928 34.0477C36.1312 33.7439 36.0902 33.4334 36.1073 33.4299C36.1312 33.4231 40.0201 33.1671 40.1227 33.1671C40.1809 33.1671 40.2116 33.1706 40.1911 33.1808ZM12.7773 33.2286C12.7773 33.2456 12.7705 33.2627 12.7637 33.2627C12.7534 33.2627 11.9428 33.5221 10.9577 33.8429C9.97269 34.1603 9.15182 34.4231 9.13129 34.4231C9.06289 34.4231 8.87135 33.4948 8.92608 33.4402C8.95344 33.4163 12.0386 33.2081 12.514 33.1979C12.6679 33.1979 12.7773 33.2081 12.7773 33.2286ZM43.0266 33.2627C43.0779 33.2798 43.1907 33.4129 43.3139 33.5938C43.5909 34.0067 43.5909 34.0136 43.4199 33.8634C43.0334 33.5221 42.941 33.4231 42.9205 33.3275C42.9 33.2183 42.9034 33.2149 43.0266 33.2627ZM41.4532 33.348C41.4669 33.3856 41.419 33.4265 41.2993 33.488C41.2035 33.5357 41.118 33.5665 41.1112 33.5596C41.0975 33.5494 41.3985 33.2968 41.4259 33.2968C41.4293 33.2968 41.4395 33.3207 41.4532 33.348ZM12.7226 33.7098L12.7192 34.0886L11.1219 34.7849C10.2463 35.1671 9.51437 35.4811 9.50069 35.4811C9.47333 35.4811 9.17234 34.7405 9.14156 34.5938C9.12103 34.5084 9.13471 34.505 9.84614 34.2764C10.6431 34.0204 12.726 33.3378 12.726 33.3344C12.726 33.331 12.726 33.5016 12.7226 33.7098ZM42.1236 33.9419C42.0312 34.133 41.9457 34.2866 41.9389 34.2866C41.9355 34.2866 41.9663 34.1125 42.0141 33.9009C42.0791 33.6074 42.1202 33.4948 42.1886 33.4231L42.2775 33.3241L42.2878 33.4607C42.2946 33.5699 42.2638 33.6688 42.1236 33.9419ZM42.9787 33.8702C43.03 34.0818 43.0676 34.2525 43.0608 34.2525C43.0573 34.2525 42.965 34.0921 42.8624 33.8975C42.7016 33.604 42.6743 33.5255 42.6914 33.4368L42.7153 33.3241L42.7974 33.4095C42.8555 33.4675 42.9068 33.6006 42.9787 33.8702ZM42.5511 33.4675C42.5956 33.5562 42.599 33.6211 42.5614 33.9624C42.5409 34.1808 42.5101 34.3378 42.4998 34.3139C42.4861 34.29 42.4554 34.1125 42.4314 33.918C42.3972 33.6415 42.3972 33.5494 42.4314 33.4675C42.4554 33.4095 42.4793 33.3651 42.4861 33.3651C42.493 33.3651 42.5204 33.4095 42.5511 33.4675ZM43.7448 33.5494L44.1997 33.7337L45.9749 35.0374C46.9497 35.7576 47.7568 36.348 47.7637 36.3549C47.8013 36.389 47.1788 37.1535 47.1172 37.1535C47.0967 37.1535 46.3408 36.4846 45.431 35.6689C43.8816 34.2764 43.7688 34.1671 43.5772 33.8736C43.2523 33.3822 43.2455 33.3651 43.2694 33.3651C43.2797 33.3651 43.4951 33.447 43.7448 33.5494ZM18.0207 33.5187L19.1118 33.6347L20.2952 33.9828C20.9485 34.174 21.4889 34.3344 21.4957 34.3412C21.5402 34.3822 21.2084 35.3105 21.1503 35.3105C21.1297 35.3105 20.2097 34.9487 19.1083 34.505C17.3058 33.7815 16.803 33.5562 16.7244 33.4299C16.697 33.3822 16.8749 33.3924 18.0207 33.5187ZM42.0176 33.4572C42.0141 33.4743 41.8808 33.6074 41.72 33.7576C41.4156 34.0443 41.4088 34.0272 41.6687 33.6381C41.7508 33.5153 42.0312 33.3719 42.0176 33.4572ZM41.3951 33.9351C41.1967 34.2422 41.0599 34.3822 39.8115 35.5665C39.0624 36.2798 38.3442 36.9624 38.2142 37.0818L37.985 37.3037L37.8448 37.1671C37.7695 37.0955 37.6122 36.9214 37.4993 36.7815C37.3044 36.5392 37.2975 36.5255 37.3591 36.4675C37.3933 36.4368 38.18 35.819 39.1069 35.0955C40.6768 33.8736 40.8205 33.7712 41.142 33.6313C41.4737 33.4845 41.4874 33.4811 41.549 33.5426C41.6071 33.6006 41.6037 33.6142 41.3951 33.9351ZM43.6627 34.1842C43.7346 34.2491 44.3331 35.1228 44.9967 36.1228C46.0398 37.6927 46.1972 37.9487 46.1561 37.9897C46.0775 38.0682 45.3626 38.488 45.3284 38.4743C45.3113 38.4709 44.8291 37.5904 44.2579 36.5221L43.2215 34.5767L43.1155 34.133C43.0573 33.8873 42.9992 33.6586 42.9889 33.6211C42.9718 33.5596 43.2386 33.7849 43.6627 34.1842ZM16.9193 33.703C17.0562 33.7644 20.5722 36.3344 20.5756 36.3753C20.5756 36.389 20.5346 36.447 20.4833 36.5016C20.391 36.6006 20.3773 36.604 19.8813 36.6415L19.3785 36.6825L19.2794 36.6006C18.7834 36.1842 17.2545 34.7747 17.2374 34.7166C17.1964 34.5869 17.0869 34.4777 16.8544 34.3344C16.6286 34.1979 16.3584 33.9078 16.4337 33.8839C16.4542 33.877 16.4713 33.8293 16.4713 33.7746C16.4713 33.6996 16.4918 33.6688 16.567 33.645C16.6662 33.6074 16.7278 33.6177 16.9193 33.703ZM41.8979 34.1057L41.7884 34.6108L40.8068 36.5801C40.2698 37.6654 39.8149 38.5528 39.7944 38.5528C39.726 38.5528 38.9085 38.0955 38.9085 38.0545C38.9085 38.0477 39.4352 37.2013 40.0748 36.1774L41.2446 34.3139L41.6071 33.9589C41.8055 33.7644 41.9799 33.604 41.9902 33.604C42.0005 33.604 41.9594 33.8293 41.8979 34.1057ZM14.0873 33.6962C14.1181 33.7064 14.1455 33.7473 14.1455 33.7883C14.1455 33.8293 14.1591 33.877 14.1797 33.8975C14.2002 33.918 14.1831 33.976 14.1249 34.0648C14.0121 34.2388 13.5264 34.7303 13.4751 34.7303C13.4238 34.7303 13.0612 34.406 13.0168 34.3207C12.9552 34.2081 13.8308 33.604 13.9745 33.6586C14.0018 33.6723 14.0531 33.6893 14.0873 33.6962ZM20.2678 33.761C20.5585 33.7917 20.798 33.819 20.798 33.8224C20.798 33.8224 20.8288 33.8873 20.8698 33.9624L20.9382 34.1023L20.2712 33.9043C19.6727 33.7235 19.4162 33.6347 19.6522 33.6859C19.7 33.6962 19.9771 33.7303 20.2678 33.761ZM42.4006 34.191C42.4417 34.4504 42.4622 34.7337 42.4554 34.8497C42.4314 35.1433 41.9834 39.1125 41.9697 39.1262C41.956 39.1398 41.2446 39.034 41.0804 38.9931L40.9402 38.959L41.1522 37.9624C41.2685 37.4129 41.4737 36.4436 41.6105 35.8088L41.8568 34.6518L42.0826 34.1774C42.2057 33.918 42.3117 33.7132 42.3186 33.72C42.3288 33.7269 42.363 33.9385 42.4006 34.191ZM43.6627 36.6996C43.9466 37.8566 44.1758 38.8327 44.1758 38.8634C44.1758 38.9112 44.1108 38.9385 43.8782 38.9931C43.7106 39.0306 43.4849 39.0716 43.372 39.0818L43.1668 39.1057L42.9821 37.8156C42.8829 37.1023 42.7427 36.116 42.6743 35.6177L42.5477 34.7132L42.6059 34.2183C42.6366 33.9453 42.664 33.7166 42.6674 33.7064C42.6708 33.6962 42.7803 33.8941 42.9103 34.1432L43.1531 34.5938L43.6627 36.6996ZM16.3481 33.9316C16.3652 33.9794 16.3618 33.9828 16.3174 33.9453C16.2592 33.8975 16.2524 33.877 16.2968 33.877C16.3139 33.877 16.3379 33.9009 16.3481 33.9316ZM19.2759 34.645C20.2815 35.0511 21.1126 35.389 21.1195 35.3992C21.1674 35.447 20.6577 36.3105 20.5996 36.2764C20.5756 36.2627 19.8984 35.7678 19.0878 35.174C18.2806 34.5801 17.5487 34.0443 17.4632 33.9794C17.3777 33.918 17.34 33.877 17.3777 33.8873C17.4153 33.8975 18.2704 34.2388 19.2759 34.645ZM46.4776 34.6484C47.4866 35.0545 48.3144 35.4061 48.3144 35.4299C48.3144 35.4675 47.8902 36.2252 47.8424 36.2729C47.8253 36.29 47.2438 35.8839 46.5495 35.3753C45.8552 34.8634 45.1095 34.3139 44.894 34.1569C44.6786 33.9965 44.5315 33.877 44.5691 33.8873C44.6067 33.8975 45.4652 34.2388 46.4776 34.6484ZM13.2049 33.9999C12.9962 34.174 12.9449 34.2013 12.9107 34.1467C12.8868 34.1091 12.9278 34.0784 13.0783 34.0067C13.3212 33.8941 13.3314 33.8941 13.2049 33.9999ZM14.3507 33.9248C14.3507 33.9316 14.3267 33.9555 14.2994 33.9794C14.2549 34.017 14.2515 34.0136 14.2686 33.9658C14.2857 33.918 14.3507 33.8873 14.3507 33.9248ZM40.4818 33.9248C40.4818 33.9385 37.3044 36.4163 37.2668 36.4299C37.2155 36.447 36.6887 35.6006 36.7263 35.563C36.74 35.5528 40.3861 33.9453 40.475 33.9146C40.4784 33.9112 40.4818 33.918 40.4818 33.9248ZM14.508 34.0955C14.6072 34.0716 14.6038 34.0545 14.5354 34.3446C14.508 34.4709 14.4875 34.6211 14.4978 34.6791C14.508 34.7337 14.4909 34.8224 14.467 34.8736C14.4259 34.9521 14.3952 34.9692 14.2891 34.9692C14.1557 34.9692 13.7795 34.8907 13.7453 34.8566C13.7111 34.819 14.0531 34.3105 14.2139 34.1603C14.3336 34.0477 14.3746 34.0272 14.3952 34.0682C14.4123 34.0989 14.4499 34.1091 14.508 34.0955ZM12.8115 34.1637C12.8115 34.1706 12.8218 34.2013 12.8321 34.2286C12.8457 34.2661 12.449 34.5938 11.4776 35.348C10.7217 35.9385 10.0924 36.4231 10.0753 36.4299C10.024 36.447 9.49727 35.6006 9.53489 35.563C9.56225 35.5357 12.726 34.1569 12.7705 34.1535C12.791 34.1501 12.8115 34.1569 12.8115 34.1637ZM21.5231 34.2388C21.5128 34.2491 21.482 34.2525 21.4581 34.2422C21.4307 34.232 21.441 34.2217 21.4786 34.2217C21.5162 34.2183 21.5368 34.2286 21.5231 34.2388ZM13.0475 34.5187C13.1331 34.6108 13.2459 34.7166 13.2972 34.7542L13.393 34.8258L13.0578 35.1467C12.8765 35.3241 12.3874 35.7883 11.9736 36.1808C11.5597 36.5733 11.1253 36.9863 11.009 37.0989L10.7936 37.3037L10.6533 37.1706C10.5781 37.0955 10.4208 36.9214 10.3079 36.7815C10.1403 36.5733 10.1129 36.5221 10.1505 36.4846C10.2121 36.4231 12.8594 34.3583 12.8765 34.3549C12.8868 34.3549 12.962 34.4299 13.0475 34.5187ZM23.5924 34.4504C23.6334 34.4845 23.6471 34.5289 23.6334 34.5835C23.6197 34.6381 23.6334 34.6893 23.6744 34.7337C23.7087 34.7747 23.736 34.8395 23.7292 34.8805C23.7223 34.9351 23.7463 34.976 23.8044 35.017C23.8626 35.0511 23.8933 35.1057 23.8933 35.1569C23.8933 35.2183 23.9207 35.2525 23.9754 35.2764C24.0233 35.2934 24.0644 35.3412 24.0712 35.3856C24.078 35.4265 24.1191 35.4811 24.1636 35.5016C24.208 35.5255 24.2593 35.5767 24.2833 35.6211C24.3038 35.6654 24.3585 35.7064 24.3996 35.7132C24.444 35.72 24.4953 35.761 24.5158 35.8088C24.5432 35.8668 24.5808 35.8907 24.6458 35.8907C24.7108 35.8907 24.7587 35.918 24.7963 35.976C24.8374 36.0409 24.8716 36.0579 24.9297 36.0443C24.981 36.0306 25.0289 36.0443 25.0699 36.0921C25.1144 36.1433 25.1623 36.1569 25.2409 36.1433C25.3265 36.1296 25.3333 36.133 25.2786 36.1603C25.2033 36.1944 22.7681 36.4163 22.7407 36.389C22.7304 36.3822 22.7407 36.3446 22.7612 36.3071C22.7783 36.2729 22.8023 36.1842 22.8091 36.116C22.816 36.0409 22.857 35.9555 22.9117 35.8975C22.9904 35.8156 23.0964 35.4914 23.0554 35.4538C23.0485 35.447 23.0896 35.3685 23.1443 35.2832C23.2161 35.1671 23.2435 35.0852 23.2435 34.9658C23.2435 34.8668 23.2709 34.7576 23.3085 34.6893C23.3427 34.6279 23.3837 34.5289 23.3974 34.4675C23.4213 34.3514 23.4726 34.348 23.5924 34.4504ZM45.6465 35.959C46.4092 36.6415 47.0386 37.2047 47.0454 37.2115C47.0728 37.232 46.806 37.4914 46.5392 37.7064C46.399 37.8156 46.2759 37.8975 46.2587 37.8805C46.2314 37.8497 44.0732 34.6108 44.0253 34.5255C44.0082 34.4982 44.0561 34.5289 44.1279 34.5972C44.1997 34.6654 44.8838 35.2764 45.6465 35.959ZM13.7487 34.662C13.6974 34.7371 13.6324 34.7985 13.6051 34.7985C13.5674 34.7985 13.5948 34.7508 13.6837 34.662C13.7556 34.5869 13.8205 34.5255 13.8274 34.5255C13.8342 34.5255 13.7966 34.5869 13.7487 34.662ZM39.9449 36.2559C39.3497 37.2115 38.8572 37.9965 38.8538 38.0033C38.8196 38.0443 38.0432 37.4095 38.0603 37.3514C38.0705 37.3241 40.9983 34.5255 41.0188 34.5255C41.0223 34.5255 40.5366 35.3037 39.9449 36.2559ZM16.2797 34.7576C16.2866 34.7712 16.2729 34.8088 16.249 34.8429C16.1977 34.9112 16.1532 34.8702 16.184 34.7849C16.2079 34.7269 16.2524 34.7132 16.2797 34.7576ZM15.777 34.8531C15.7667 34.8634 15.7359 34.8668 15.712 34.8566C15.6846 34.8463 15.6949 34.8361 15.7325 34.8361C15.7701 34.8327 15.7906 34.8429 15.777 34.8531ZM13.5435 34.9419C13.5401 34.9794 11.7444 37.9009 11.6623 38.0033C11.6281 38.0443 10.8517 37.4095 10.8688 37.3549C10.8962 37.2764 13.4477 34.8702 13.4956 34.877C13.523 34.8839 13.5435 34.9112 13.5435 34.9419ZM15.2468 34.9078C15.2331 34.9214 15.0792 34.9419 14.9048 34.9555C14.6277 34.976 14.5901 34.9726 14.6072 34.9248C14.6243 34.8839 14.6893 34.8736 14.9492 34.877C15.1271 34.8805 15.2605 34.8941 15.2468 34.9078ZM15.5923 34.8907C15.5478 34.8975 15.4794 34.8975 15.4383 34.8907C15.3939 34.8839 15.4281 34.877 15.5136 34.877C15.5991 34.877 15.6333 34.8839 15.5923 34.8907ZM44.2955 36.7371C44.8188 37.7166 45.2395 38.5255 45.2327 38.5323C45.1985 38.5631 44.422 38.8566 44.3502 38.8668C44.2715 38.877 44.2613 38.86 44.1895 38.5699C44.0527 38.0033 43.803 36.9726 43.5806 36.0443C43.4575 35.5357 43.3412 35.0716 43.3241 35.0067C43.3036 34.9419 43.3036 34.9043 43.3173 34.9214C43.3344 34.9385 43.7722 35.7542 44.2955 36.7371ZM14.1489 35.0613C14.2583 35.0716 14.3507 35.0852 14.3507 35.0886C14.3507 35.1364 12.6303 38.5528 12.6029 38.5528C12.5345 38.5528 11.717 38.0955 11.717 38.0545C11.717 38.0375 13.588 35.0409 13.6358 34.9828C13.6598 34.9521 13.7042 34.9555 13.8069 34.9897C13.8821 35.017 14.036 35.0477 14.1489 35.0613ZM16.1087 35.1944C16.16 35.4129 16.1634 35.4607 16.1258 35.4845C16.0985 35.5016 15.9548 35.5869 15.8043 35.6791C15.6538 35.7712 15.5273 35.8463 15.5239 35.8429C15.5102 35.8327 15.411 35.1467 15.411 35.0784C15.411 35.017 15.5512 34.9828 15.9959 34.9419C16.0335 34.9351 16.0643 35.0033 16.1087 35.1944ZM16.2934 35.3378C16.2455 35.3958 16.225 35.3685 16.1737 35.1808C16.1087 34.9282 16.1258 34.9043 16.2284 35.1057C16.3003 35.2422 16.3174 35.3071 16.2934 35.3378ZM18.2704 35.7917C18.7937 36.2627 19.228 36.6586 19.2349 36.6757C19.2383 36.6893 19.0639 36.7098 18.8416 36.7235C18.6192 36.7371 18.414 36.7542 18.3832 36.7644C18.3456 36.7747 18.1814 36.5562 17.771 35.9453C17.3058 35.2456 17.2203 35.0955 17.2374 35.0204C17.2511 34.9726 17.2716 34.9351 17.2853 34.9351C17.3024 34.9351 17.7436 35.3207 18.2704 35.7917ZM41.525 35.86C41.4224 36.3549 41.2309 37.2456 41.1078 37.8361C40.9846 38.4265 40.8752 38.918 40.8718 38.9248C40.841 38.9624 39.9038 38.6416 39.9004 38.5938C39.897 38.5596 41.6926 34.9453 41.7063 34.9555C41.7132 34.959 41.6311 35.3685 41.525 35.86ZM15.24 35.0921C15.24 35.1603 15.1374 36.0067 15.1271 36.0101C15.1237 36.0136 14.9732 36.0579 14.7953 36.1125C14.6175 36.1637 14.4362 36.2388 14.3952 36.2764C14.2925 36.3651 14.2925 36.3719 14.4465 35.6689L14.573 35.0886L14.8124 35.0682C15.2434 35.034 15.24 35.034 15.24 35.0921ZM14.3644 35.72L14.2344 36.3378L14.1215 36.3173C13.9881 36.2934 13.9847 36.3071 14.0805 36.5357L14.1557 36.7098L13.9231 37.8122C13.7932 38.4163 13.6837 38.918 13.6803 38.9248C13.6461 38.9658 12.7089 38.6347 12.7089 38.5835C12.7089 38.5255 14.4567 35.0648 14.4772 35.0852C14.4875 35.0955 14.4362 35.3822 14.3644 35.72ZM15.3939 35.4948C15.4247 35.7166 15.4452 35.9009 15.4383 35.9043C15.3905 35.9316 15.2297 35.9931 15.2229 35.9863C15.216 35.9794 15.2365 35.7712 15.2639 35.5221C15.2947 35.2729 15.3221 35.075 15.3289 35.0784C15.3323 35.0852 15.3631 35.2695 15.3939 35.4948ZM42.8419 37.3105C42.9718 38.2491 43.0813 39.0443 43.0813 39.075C43.0813 39.1262 43.0266 39.133 42.5682 39.133C42.2878 39.133 42.0552 39.1228 42.0552 39.1057C42.0552 39.0921 42.1544 38.1945 42.2775 37.1091C42.4006 36.0238 42.5033 35.1159 42.5033 35.0955C42.5101 35.0136 42.6059 35.6415 42.8419 37.3105ZM17.706 35.9794C17.9899 36.4026 18.2156 36.7542 18.2088 36.761C18.1917 36.7781 17.2545 36.8566 17.2443 36.8429C17.2203 36.8156 16.6081 35.662 16.6081 35.645C16.6081 35.6347 16.7039 35.563 16.8236 35.488C16.9399 35.4095 17.0562 35.3173 17.0801 35.2764C17.104 35.2388 17.1382 35.2081 17.1553 35.2081C17.1724 35.2081 17.4221 35.5562 17.706 35.9794ZM16.8544 36.2695C17.0185 36.5767 17.1553 36.8395 17.1553 36.8497C17.1553 36.86 17.0596 36.8736 16.9433 36.877C16.8236 36.8805 16.697 36.8873 16.6594 36.8907C16.6012 36.8975 16.5773 36.8361 16.4679 36.3856C16.396 36.1023 16.3379 35.8497 16.3379 35.819C16.3345 35.7644 16.4576 35.6825 16.5192 35.6996C16.5397 35.703 16.6868 35.959 16.8544 36.2695ZM16.3858 36.3344C16.4508 36.604 16.5055 36.8429 16.5055 36.8668C16.5055 36.9043 16.2216 36.9419 15.7872 36.959L15.6709 36.9658L15.6299 36.6757C15.5649 36.2252 15.5615 36.2422 15.7462 36.1501C15.8351 36.1023 15.9856 36.0136 16.0779 35.9487C16.1737 35.8839 16.2524 35.8327 16.2558 35.8361C16.2592 35.8395 16.3174 36.0648 16.3858 36.3344ZM15.5786 36.8668C15.582 36.9692 15.5752 36.976 15.4247 36.9965C15.1716 37.0306 15.1716 37.0306 15.1921 36.9043C15.2023 36.8463 15.2297 36.761 15.2502 36.7166C15.2776 36.6586 15.2776 36.6313 15.2468 36.6006C15.1579 36.5119 15.1989 36.4061 15.3528 36.3412L15.4965 36.2764L15.5375 36.5187C15.5581 36.6518 15.5786 36.8088 15.5786 36.8668ZM20.2131 36.8532C20.0592 37.0409 19.9429 37.1535 19.9087 37.1535C19.8882 37.1535 19.7958 37.0784 19.7035 36.9828L19.5393 36.8156L19.7924 36.802C19.9326 36.7985 20.0968 36.7883 20.1618 36.7849L20.2781 36.7781L20.2131 36.8532ZM14.2994 36.9555C14.3986 37.1091 14.5183 37.1876 14.7645 37.2559C14.9595 37.3105 14.9834 37.3241 14.9766 37.3958C14.9561 37.6245 14.7885 39.116 14.7816 39.1262C14.7611 39.1433 14.0155 39.0272 13.8855 38.9863L13.7487 38.9453L13.9745 37.8975C14.0976 37.3173 14.2036 36.8463 14.2139 36.8463C14.2241 36.8497 14.2618 36.8975 14.2994 36.9555ZM19.6453 37.0238C19.7514 37.1228 19.8471 37.2081 19.854 37.2149C19.8813 37.232 19.6077 37.4948 19.3478 37.7064C19.2075 37.8156 19.0844 37.8975 19.0673 37.8805C19.0536 37.8668 18.9031 37.645 18.7321 37.3856L18.4277 36.9214L18.756 36.8975C18.9407 36.8873 19.1118 36.8702 19.1391 36.8668C19.3614 36.819 19.4504 36.8463 19.6453 37.0238ZM18.6945 37.4641C18.9715 37.877 19.0057 37.9487 18.9647 37.9897C18.886 38.0682 18.1712 38.488 18.137 38.4743C18.0959 38.4607 17.3229 37.017 17.3537 37.0136C17.6992 36.9726 18.3114 36.9351 18.3388 36.9555C18.3593 36.9726 18.52 37.1979 18.6945 37.4641ZM17.6513 37.7712C17.8736 38.1842 18.0446 38.5255 18.0412 38.5289C17.8736 38.6313 17.1143 38.9009 17.0835 38.8668C17.0664 38.8463 16.6423 37.133 16.6423 37.075C16.6423 37.0579 16.7244 37.0477 17.1451 37.0238C17.2511 37.017 17.2545 37.0204 17.6513 37.7712ZM16.6594 37.4675C16.8475 38.2525 16.9843 38.8088 17.0014 38.8634C17.0219 38.9214 16.8988 38.959 16.3858 39.0511C15.9274 39.133 15.9924 39.2354 15.8419 38.1501C15.7701 37.6313 15.7085 37.1876 15.7051 37.1706C15.7017 37.1364 15.9856 37.1023 16.3721 37.0921L16.567 37.0852L16.6594 37.4675ZM15.7599 38.075C15.8283 38.5733 15.8864 39.0136 15.8898 39.0545C15.8898 39.133 15.8864 39.133 15.3768 39.133C15.0655 39.133 14.8637 39.1194 14.8637 39.0989C14.8637 39.0443 15.0347 37.5528 15.0518 37.4334C15.0655 37.3685 15.0929 37.3241 15.1203 37.3241C15.1476 37.3241 15.1716 37.2934 15.1716 37.2593C15.1716 37.1808 15.2365 37.1569 15.4589 37.1637L15.6299 37.1706L15.7599 38.075Z" fill="#6AD2FF"/>
</svg>
