<svg width="58" height="58" viewBox="0 0 58 58" fill="none" xmlns="http://www.w3.org/2000/svg">
<rect width="58" height="58" rx="12" fill="#FFCFCF"/>
<path d="M33.478 8.04409C33.2258 8.10623 33.1454 8.18663 32.8969 8.60693C32.7836 8.79699 32.6301 9.05282 32.5533 9.16978C32.4656 9.30866 32.4108 9.43292 32.4108 9.50602C32.4108 9.60104 32.3889 9.63028 32.2829 9.68145C32.049 9.79475 32.0161 10.0579 32.2281 10.1456C32.3048 10.1785 32.4364 10.1858 32.6593 10.1675C33.2587 10.1237 33.4086 10.1346 33.5767 10.2224C33.7192 10.2955 33.7485 10.2991 33.8618 10.2589C33.9751 10.2151 33.997 10.2187 34.0701 10.2882C34.2017 10.4124 34.3296 10.3868 34.5708 10.1895C34.6877 10.0944 34.7864 9.98846 34.7864 9.95556C34.7864 9.87881 35.0898 9.78013 35.331 9.78013C35.4918 9.78013 35.5064 9.7911 35.7659 10.0616C36.1022 10.4161 36.6029 11.0228 37.0122 11.5673C37.184 11.7976 37.3558 12.0242 37.3923 12.0717C37.4581 12.1521 37.4581 12.1558 37.3923 12.1777C37.0122 12.3166 36.5042 12.5797 36.0912 12.8575C35.7294 13.1024 35.6745 13.117 34.9326 13.1462C34.0006 13.1828 33.6973 13.2888 33.1564 13.7712C32.7068 14.1696 32.546 14.2244 32.0453 14.1623C31.7127 14.1221 30.905 13.943 30.9233 13.9137C31.0987 13.5994 31.1462 13.4386 31.1462 13.1791C31.1426 12.5761 31.0622 11.5089 31.0037 11.3152C30.9745 11.2055 30.9233 10.9899 30.894 10.8327C30.8538 10.6171 30.7844 10.438 30.5797 10.0469C30.2727 9.45851 30.101 9.21363 29.8524 9.01627C29.4979 8.73851 28.9314 8.60328 28.438 8.68369C27.9081 8.76775 27.5645 8.92856 27.2246 9.24653C26.5265 9.90805 26.3182 10.7231 26.585 11.7684C26.6398 11.9767 26.6398 11.984 26.5558 12.0717C26.3036 12.3385 26.6727 13.1243 27.1113 13.2559C27.2356 13.2924 27.2648 13.3253 27.3635 13.5409C27.5937 14.0453 27.6486 14.3962 27.5133 14.5314C27.4037 14.641 27.0455 14.8092 26.8153 14.8603C26.4717 14.9371 26.2342 14.8969 25.7042 14.6703C25.1121 14.4144 24.9184 14.3706 24.4579 14.3925C24.1692 14.4071 24.0193 14.4364 23.7123 14.5424C23.1568 14.7324 23.0216 14.7434 22.6305 14.6264C22.181 14.4948 21.6693 14.3962 21.2928 14.3633L20.9785 14.3377L21.026 14.2244C21.0516 14.1623 21.1247 13.8808 21.1905 13.5994C21.4573 12.4189 21.8045 11.2201 21.8959 11.1617C22.0238 11.0812 22.6707 11.1763 22.7402 11.2859C22.7986 11.3773 22.7475 11.3992 22.6195 11.3371C22.477 11.2603 22.3454 11.264 22.2833 11.3371C22.2394 11.3919 22.2541 11.4175 22.4149 11.56C22.7109 11.8232 22.7475 11.8414 22.8681 11.7903C22.9266 11.7684 23.007 11.7099 23.0508 11.6587C23.1166 11.582 23.1422 11.5746 23.2043 11.6112C23.303 11.6624 23.4857 11.6258 23.5844 11.5344C23.6246 11.4979 23.7416 11.4467 23.8403 11.4248C23.9426 11.4029 24.0705 11.37 24.1253 11.3517C24.1802 11.3334 24.3739 11.3298 24.5529 11.3407C24.9075 11.3627 25.0537 11.3298 25.1341 11.2019C25.2072 11.0812 25.1267 10.9314 24.9367 10.84C24.8234 10.7852 24.7686 10.7304 24.7284 10.628C24.637 10.4014 23.9645 9.44754 23.8439 9.37445C23.6794 9.27211 23.3724 9.28673 22.8754 9.41465C22.6415 9.47313 22.2394 9.5645 21.98 9.61201C21.154 9.76917 20.6935 10.0871 20.2987 10.7706C20.0173 11.2603 19.9077 11.4175 19.5678 11.8268C18.9501 12.5724 18.6358 13.1462 18.3251 14.0928C18.073 14.864 17.9633 15.383 18.0108 15.562C18.0985 15.8727 18.4202 16.1066 19.2827 16.4831C19.4764 16.5671 19.8017 16.7535 20.0027 16.8961C21.0845 17.6636 22.1042 17.9231 23.1934 17.7111C23.8403 17.5868 24.0559 17.6234 24.1619 17.8865C24.1911 17.9633 24.2532 18.1972 24.2971 18.4055C24.4141 18.9574 24.5822 19.4069 24.9769 20.2439C25.3241 20.9785 25.5032 21.3147 25.7627 21.6948C25.8358 21.8081 26.0112 22.1115 26.1501 22.371C26.2926 22.6341 26.4717 22.9484 26.5558 23.0763C26.7787 23.4199 26.8116 23.6246 26.7093 24.0631C26.6472 24.3299 26.6325 24.4725 26.6508 24.6552C26.7202 25.3789 26.7239 25.3167 26.6179 25.5141C26.3511 26.0039 26.2744 26.1939 26.2195 26.4644C26.1026 27.0784 26.0441 27.3013 25.9418 27.5572C25.8248 27.8386 25.7225 28.3247 25.7225 28.5988C25.7225 28.6901 25.6896 28.9241 25.6494 29.1141C25.6092 29.3042 25.5617 29.5527 25.5434 29.666C25.5251 29.7829 25.4922 29.9109 25.4666 29.9547C25.4447 29.9986 25.4191 30.1301 25.4118 30.2471C25.4045 30.364 25.3314 30.7003 25.251 30.9963C24.9586 32.0635 24.8636 32.7945 24.8928 33.7667C24.9294 34.9801 25.1998 35.9559 25.6604 36.5297C25.7663 36.6613 25.8687 36.7929 25.8833 36.8221C25.9016 36.8477 25.9272 37.1108 25.9454 37.4069C25.9674 37.7906 26.0003 38.0355 26.066 38.2804C26.1793 38.6861 26.1866 38.9638 26.1026 39.8044C26.0368 40.5062 26.0295 41.5953 26.088 42.1252C26.1099 42.3336 26.172 42.7283 26.2195 43.0024C26.395 43.9673 26.4169 44.0842 26.4498 44.4095C26.4717 44.5886 26.5046 45.0454 26.5302 45.4182C26.5631 46.0067 26.5631 46.1455 26.5119 46.4708C26.4132 47.0885 26.1135 47.7902 25.7225 48.3202C25.1816 49.0548 24.849 49.5811 24.8234 49.7492C24.8051 49.8735 24.8124 49.9283 24.8599 49.9794C24.8928 50.016 24.9184 50.0635 24.9184 50.0854C24.9184 50.1074 24.9513 50.1439 24.9915 50.1658C25.0317 50.1878 25.0573 50.2207 25.0463 50.2389C25.0208 50.2791 25.1304 50.3851 25.1998 50.3851C25.2327 50.3851 25.2985 50.429 25.346 50.4802C25.4155 50.5569 25.4557 50.5715 25.5397 50.5533C25.6275 50.5386 25.6677 50.5569 25.759 50.6483C25.8614 50.7506 25.887 50.7579 26.0405 50.736C26.2451 50.7104 26.4279 50.5752 26.5265 50.3851C26.5667 50.3047 26.6398 50.2134 26.691 50.1805C26.7422 50.1476 26.8445 50.027 26.9213 49.9137C27.0492 49.7236 27.0967 49.592 27.2758 48.9524C27.3343 48.7514 27.3452 48.7368 27.5535 48.6272C27.813 48.4883 27.9702 48.3202 28.0214 48.1265C28.0433 48.0497 28.0579 47.6111 28.0579 47.1287C28.0543 45.7399 28.0433 45.8751 28.2809 44.775C28.3613 44.4132 28.4636 43.8942 28.5111 43.6237C28.5769 43.2509 28.65 43.0024 28.7998 42.6186C29.0886 41.8913 29.1361 41.6428 29.1105 41.0507C29.0849 40.4842 29.0082 40.1005 28.7523 39.2672L28.5623 38.6495L28.661 38.2109C28.7158 37.9697 28.7743 37.5494 28.7925 37.2717C28.8876 35.9486 28.9095 35.7037 28.9607 35.426C29.0301 35.0459 29.1836 33.7338 29.2348 33.1161C29.275 32.6191 29.2603 30.6162 29.2165 30.5431C29.1653 30.4627 29.2311 30.4371 29.3846 30.47C29.5893 30.5176 29.8597 30.6162 29.8378 30.6418C29.8268 30.6528 29.8488 30.7039 29.889 30.7588C29.9292 30.8172 29.9621 30.8794 29.9621 30.9013C29.9621 30.9269 30.0023 30.9854 30.0498 31.0329C30.1119 31.095 30.1887 31.2814 30.291 31.6213C30.5834 32.5935 30.7698 33.0394 31.5044 34.4867C32.0051 35.4698 32.2536 36.0473 32.3523 36.442C32.4729 36.9098 32.6593 37.3045 32.9481 37.6737C33.0504 37.8089 33.1271 37.9588 33.1637 38.094C33.2441 38.4083 33.4013 38.7043 33.7229 39.1575C34.0445 39.6144 34.0116 39.5084 34.0957 40.3892C34.1724 41.2262 34.2857 41.6172 34.6841 42.4213C35.0532 43.1705 35.0496 43.1596 35.2981 43.9892C35.6819 45.2757 35.7623 45.6448 35.8061 46.4014C35.828 46.7669 35.8573 46.9459 35.9158 47.0885C35.9669 47.2164 35.9925 47.3626 35.9925 47.5161C35.9925 47.9327 36.051 48.1082 36.2557 48.3055C36.453 48.4956 36.475 48.5504 36.5407 49.0511C36.5846 49.3727 36.7454 49.7528 36.8806 49.8625C36.9281 49.899 36.9866 49.9794 37.0122 50.0416C37.0378 50.1074 37.1072 50.206 37.1657 50.2609C37.2607 50.3522 37.3046 50.3669 37.48 50.3669C37.6591 50.3669 37.6883 50.3559 37.7688 50.2572C37.8163 50.1951 37.8565 50.1658 37.8565 50.1878C37.8565 50.3084 38.1598 50.3084 38.2073 50.1878C38.2183 50.1585 38.2548 50.1439 38.2987 50.1549C38.3426 50.1695 38.4157 50.1439 38.4778 50.0964C38.5363 50.0562 38.6021 50.0196 38.6203 50.0196C38.6423 50.0196 38.6715 49.9977 38.6861 49.9758C38.7007 49.9502 38.7482 49.91 38.7884 49.8881C38.9017 49.8259 38.9017 49.5993 38.7921 49.3983C38.7409 49.307 38.6349 49.1096 38.5582 48.9598C38.4814 48.8099 38.3389 48.5687 38.2475 48.4261C38.0356 48.1009 37.703 47.4357 37.6043 47.1397C37.5604 47.0154 37.5275 46.8326 37.5275 46.7303C37.5275 46.6097 37.4764 46.3831 37.3813 46.098C37.1876 45.5133 37.1621 45.2428 37.1621 43.4593C37.1584 40.1626 37.089 39.7898 36.2995 38.6276C35.956 38.1196 35.8938 37.9588 35.7732 37.2424C35.6965 36.8002 35.6928 36.7015 35.7184 35.6197C35.7367 34.8302 35.7294 34.3478 35.7001 34.0847C35.5759 32.9224 35.2506 32.0051 34.5927 30.9488C34.4392 30.7003 34.3113 30.4664 34.3113 30.4262C34.3113 30.3494 34.1505 30.0424 34.0518 29.9328C34.0116 29.8926 33.9824 29.8414 33.9824 29.8195C33.9824 29.7976 33.9385 29.6952 33.8873 29.5965C33.8142 29.454 33.785 29.3297 33.7631 29.052C33.7302 28.6536 33.6863 28.4343 33.5986 28.2223C33.5474 28.1017 33.5401 27.9665 33.5474 27.4548C33.5548 26.892 33.5474 26.786 33.4597 26.3913C33.3428 25.8613 33.3428 25.8394 33.4378 25.4739C33.5072 25.2071 33.5109 25.123 33.489 24.3994C33.4597 23.4893 33.4743 23.3907 33.7083 22.9265C33.7996 22.7511 33.9787 22.3344 34.1139 21.9982C34.2455 21.6619 34.4502 21.1795 34.5671 20.9237C34.8595 20.2877 34.9801 19.9296 35.1885 19.0743C35.4297 18.0875 35.4589 17.828 35.4297 17.0825C35.4004 16.3807 35.4187 16.304 35.6526 16.2016C35.7294 16.1687 35.9852 16.1176 36.2191 16.0847C37.0049 15.9787 37.4471 15.8215 38.0392 15.4268C38.3828 15.2002 38.8908 14.7141 39.2526 14.2682C39.4098 14.0745 39.64 13.826 39.7643 13.72C40.2686 13.2888 40.6378 12.9087 40.7292 12.7149C40.8096 12.5541 40.8242 12.4847 40.8096 12.3093C40.7949 12.1192 40.7694 12.0607 40.5866 11.8012C40.3162 11.4175 39.6437 10.65 39.3696 10.4161C38.8542 9.96653 38.507 9.75455 37.7834 9.43292C37.5531 9.33059 37.1913 9.13323 36.9793 8.99435C36.263 8.52653 35.9523 8.41323 34.8412 8.23049C34.5416 8.17932 34.1797 8.10623 34.0372 8.06602C33.7448 7.98196 33.7411 7.98196 33.478 8.04409ZM25.8358 50.2134C25.7992 50.2462 25.7956 50.2426 25.8175 50.1914C25.8285 50.1549 25.8504 50.1366 25.8614 50.1476C25.8723 50.1585 25.8614 50.1878 25.8358 50.2134Z" fill="#D11F1F"/>
</svg>
