<svg width="174" height="64" viewBox="0 0 174 64" fill="none" xmlns="http://www.w3.org/2000/svg">
<path d="M1 27.7463C21.1974 18.1167 24.0319 34.1534 38.3085 34.1534C52.5851 34.1534 52.509 22.1368 66.3567 22.1368C80.2045 22.1368 85.4716 1.57346 92.1396 4.99991C98.8075 8.42637 111.063 -0.394451 120.5 3.49991C129.937 7.39428 135 30 147.5 12C160 -6 174 8.46228 174 8.46228V63.9999H1V27.7463Z" fill="url(#paint0_linear_109_9)"/>
<path d="M1 27.8596C21.2547 18.1932 24.0973 34.2912 38.4143 34.2912C52.7314 34.2912 52.6551 22.2296 66.5422 22.2296C80.4292 22.2296 85.7113 2.06036 92.3981 5.49992C99.085 8.93949 110.664 -1.41009 120.128 2.5C129.592 6.41009 136.22 29.8096 145.5 15C154.78 0.190367 164.948 4.07023 164.948 4.07023L173.497 8.68021" stroke="#D11F1F" stroke-width="2" stroke-miterlimit="10"/>
<defs>
<linearGradient id="paint0_linear_109_9" x1="87.5" y1="-7.7107" x2="87.5" y2="64.0001" gradientUnits="userSpaceOnUse">
<stop stop-color="#FFCFCF"/>
<stop offset="1" stop-color="#FFCFCF" stop-opacity="0.102"/>
</linearGradient>
</defs>
</svg>
