<svg width="214" height="56" viewBox="0 0 214 56" fill="none" xmlns="http://www.w3.org/2000/svg">
<path d="M10.8734 36.8H22.4734L24.8734 39.2L24.0734 40H9.27344L8.47344 39.2L10.8734 36.8ZM22.8734 36.4V26.4L24.4734 24.8H25.2734L26.0734 25.68V38L25.2734 38.8L22.8734 36.4ZM10.7134 22.8H16.0734L16.4734 24.4L16.0734 26H10.8734L9.27344 24.4L10.7134 22.8ZM7.27344 23.2V10.8L8.07344 10L10.4734 12.4V22.4L8.87344 24H8.07344L7.27344 23.2ZM9.27344 8.8H24.0734L24.8734 9.6L22.4734 12H10.8734L8.47344 9.6L9.27344 8.8ZM17.2734 22.8H22.4734L24.0734 24.4L22.4734 26H17.2734L16.8734 24.4L17.2734 22.8ZM33.2563 36.8H44.8563L47.2563 39.2L46.4563 40H31.6563L30.8563 39.2L33.2563 36.8ZM29.6562 38V25.6L30.4563 24.8H31.2563L32.8563 26.4V36.4L30.4563 38.8L29.6562 38ZM29.6562 23.2V10.8L30.4563 10L32.8563 12.4V22.4L31.2563 24H30.4563L29.6562 23.2ZM31.6563 8.8H46.4563L47.2563 9.6L44.8563 12H33.2563L30.8563 9.6L31.6563 8.8ZM52.0391 38V25.6L52.8391 24.8H53.6391L55.2391 26.4V36.4L52.8391 38.8L52.0391 38ZM67.6391 36.4V26.4L69.2391 24.8H70.0391L70.8391 25.68V38L70.0391 38.8L67.6391 36.4ZM55.4791 22.8H60.8391L61.2391 24.4L60.8391 26H55.6391L54.0391 24.4L55.4791 22.8ZM52.0391 23.2V10.8L52.8391 10L55.2391 12.4V22.4L53.6391 24H52.8391L52.0391 23.2ZM67.6391 22.4V12.4L70.0391 10L70.8391 10.8V23.2L70.0391 24H69.2391L67.6391 22.4ZM54.0391 8.8H68.8391L69.6391 9.6L67.2391 12H55.6391L53.2391 9.6L54.0391 8.8ZM62.0391 22.8H67.2391L68.8391 24.4L67.2391 26H62.0391L61.6391 24.4L62.0391 22.8ZM74.4219 38V25.6L75.2219 24.8H76.0219L77.6219 26.4V36.4L75.2219 38.8L74.4219 38ZM90.0219 36.4V26.4L91.6219 24.8H92.4219L93.2219 25.68V38L92.4219 38.8L90.0219 36.4ZM74.4219 23.2V10.8L75.2219 10L77.6219 12.4V22.4L76.0219 24H75.2219L74.4219 23.2ZM90.0219 22.4V12.4L92.4219 10L93.2219 10.8V23.2L92.4219 24H91.6219L90.0219 22.4ZM83.6219 20V22.4H81.2219L78.0219 14.8V12.4H80.4219L83.6219 20ZM84.0219 28.8V26.4H86.4219L89.6219 34V36.4H87.2219L84.0219 28.8ZM96.8047 38V25.6L97.6047 24.8H98.4047L100.005 26.4V36.4L97.6047 38.8L96.8047 38ZM112.405 36.4V26.4L114.005 24.8H114.805L115.605 25.68V38L114.805 38.8L112.405 36.4ZM96.8047 23.2V10.8L97.6047 10L100.005 12.4V22.4L98.4047 24H97.6047L96.8047 23.2ZM112.405 22.4V12.4L114.805 10L115.605 10.8V23.2L114.805 24H114.005L112.405 22.4ZM106.005 20V22.4H103.605L100.405 14.8V12.4H102.805L106.005 20ZM106.405 28.8V26.4H108.805L112.005 34V36.4H109.605L106.405 28.8ZM122.788 36.8H134.388L136.788 39.2L135.988 40H121.188L120.388 39.2L122.788 36.8ZM121.188 8.8H135.988L136.788 9.6L134.388 12H122.788L120.388 9.6L121.188 8.8ZM126.988 12.4H130.188V16L129.188 18.4H127.988L126.988 16V12.4ZM126.988 32.8L127.988 30.4H129.188L130.188 32.8V36.4H126.988V32.8ZM141.57 38V25.6L142.37 24.8H143.17L144.77 26.4V36.4L142.37 38.8L141.57 38ZM157.17 36.4V26.4L158.77 24.8H159.57L160.37 25.68V38L159.57 38.8L157.17 36.4ZM141.57 23.2V10.8L142.37 10L144.77 12.4V22.4L143.17 24H142.37L141.57 23.2ZM157.17 22.4V12.4L159.57 10L160.37 10.8V23.2L159.57 24H158.77L157.17 22.4ZM150.77 20V22.4H148.37L145.17 14.8V12.4H147.57L150.77 20ZM151.17 28.8V26.4H153.57L156.77 34V36.4H154.37L151.17 28.8ZM167.553 36.8H179.153L181.553 39.2L180.753 40H165.953L165.153 39.2L167.553 36.8ZM163.953 38V25.6L164.753 24.8H165.553L167.153 26.4V36.4L164.753 38.8L163.953 38ZM179.553 36.4V26.4L181.153 24.8H181.953L182.753 25.68V38L181.953 38.8L179.553 36.4ZM163.953 23.2V10.8L164.753 10L167.153 12.4V22.4L165.553 24H164.753L163.953 23.2ZM165.953 8.8H180.753L181.553 9.6L179.153 12H167.553L165.153 9.6L165.953 8.8ZM173.953 22.8H179.153L180.753 24.4L179.153 26H173.953L173.553 24.4L173.953 22.8ZM186.336 36.8H189.536V40H186.336V36.8ZM193.133 36.8H196.333V40H193.133V36.8ZM199.93 36.8H203.13V40H199.93V36.8Z" fill="#28BDFF"/>
<line y1="55" x2="214" y2="55" stroke="url(#paint0_linear_2_96)" stroke-width="2"/>
<defs>
<linearGradient id="paint0_linear_2_96" x1="214" y1="56" x2="0" y2="56" gradientUnits="userSpaceOnUse">
<stop stop-color="#28BDFF" stop-opacity="0"/>
<stop offset="0.495754" stop-color="#28BDFF"/>
<stop offset="1" stop-color="#28BDFF" stop-opacity="0"/>
</linearGradient>
</defs>
</svg>
