<svg width="58" height="58" viewBox="0 0 58 58" fill="none" xmlns="http://www.w3.org/2000/svg">
<rect width="58" height="58" rx="12" fill="#ECE8FD"/>
<path d="M42.244 27.6263V20.5028C42.2424 19.0439 41.6861 17.6452 40.6974 16.6136C39.7086 15.582 38.3681 15.0017 36.9698 15H31.4322C31.2768 15 31.1278 15.0644 31.018 15.179C30.9081 15.2937 30.8464 15.4491 30.8464 15.6112C30.8464 15.7734 30.9081 15.9288 31.018 16.0435C31.1278 16.1581 31.2768 16.2225 31.4322 16.2225H36.9698C38.0575 16.2238 39.1002 16.6751 39.8693 17.4776C40.6384 18.28 41.0711 19.368 41.0723 20.5028V26.9842C40.6211 26.8221 40.1472 26.7391 39.67 26.7387H39.5531V23.2322C39.5523 22.6056 39.3134 22.0049 38.8887 21.5618C38.464 21.1187 37.8882 20.8694 37.2876 20.8686H30.6812C30.3646 20.8684 30.0515 20.9376 29.7621 21.0718C29.4728 21.2059 29.2137 21.402 29.0016 21.6472C28.7895 21.402 28.5303 21.2059 28.241 21.0718C27.9517 20.9376 27.6385 20.8684 27.3219 20.8686H20.7186C20.118 20.8694 19.5422 21.1187 19.1176 21.5618C18.6929 22.0049 18.4539 22.6056 18.4531 23.2322V26.7371H18.3362C17.859 26.7375 17.3851 26.8204 16.9339 26.9826V20.5028C16.9352 19.368 17.3678 18.28 18.1369 17.4776C18.906 16.6751 19.9488 16.2238 21.0365 16.2225H26.6862C26.8416 16.2225 26.9906 16.1581 27.1005 16.0435C27.2103 15.9288 27.272 15.7734 27.272 15.6112C27.272 15.4491 27.2103 15.2937 27.1005 15.179C26.9906 15.0644 26.8416 15 26.6862 15H21.0318C19.6335 15.0017 18.2929 15.582 17.3042 16.6136C16.3154 17.6452 15.7592 19.0439 15.7576 20.5028V27.628C15.2128 28.0481 14.77 28.5956 14.4648 29.2266C14.1595 29.8576 14.0003 30.5545 14 31.2613V39.0871C14 39.2492 14.0617 39.4047 14.1716 39.5193C14.2815 39.6339 14.4305 39.6983 14.5859 39.6983H15.7576V42.3888C15.7576 42.5509 15.8193 42.7063 15.9291 42.821C16.039 42.9356 16.188 43 16.3434 43H19.5095C19.6649 43 19.8139 42.9356 19.9238 42.821C20.0336 42.7063 20.0954 42.5509 20.0954 42.3888V39.6983H37.9062V42.3888C37.9062 42.5509 37.9679 42.7063 38.0778 42.821C38.1877 42.9356 38.3367 43 38.4921 43H41.6566C41.812 43 41.961 42.9356 42.0709 42.821C42.1807 42.7063 42.2424 42.5509 42.2424 42.3888V39.6983H43.4141C43.5695 39.6983 43.7185 39.6339 43.8284 39.5193C43.9383 39.4047 44 39.2492 44 39.0871V31.2613C44.0001 30.5543 43.8413 29.8572 43.5363 29.2259C43.2313 28.5947 42.7887 28.0468 42.244 27.6263V27.6263ZM29.5812 23.2322C29.5812 22.9304 29.6961 22.641 29.9006 22.4276C30.1052 22.2142 30.3826 22.0943 30.6719 22.0943H37.2736C37.5629 22.0943 37.8403 22.2142 38.0448 22.4276C38.2494 22.641 38.3643 22.9304 38.3643 23.2322V26.7371H29.5812V23.2322ZM19.6201 23.2322C19.6201 22.9304 19.735 22.641 19.9396 22.4276C20.1441 22.2142 20.4215 22.0943 20.7108 22.0943H27.3203C27.6096 22.0943 27.887 22.2142 28.0916 22.4276C28.2961 22.641 28.411 22.9304 28.411 23.2322V26.7371H19.6248L19.6201 23.2322ZM18.9221 41.7775H16.9293V39.6983H18.9221V41.7775ZM41.0707 41.7775H39.0857V39.6983H41.0785L41.0707 41.7775ZM42.8252 35.5416H19.3864C19.231 35.5416 19.082 35.606 18.9722 35.7206C18.8623 35.8352 18.8006 35.9907 18.8006 36.1528C18.8006 36.3149 18.8623 36.4704 18.9722 36.585C19.082 36.6997 19.231 36.7641 19.3864 36.7641H42.8252V38.4759H15.1717V31.2613C15.1725 30.3859 15.5062 29.5466 16.0995 28.9276C16.6928 28.3086 17.4972 27.9605 18.3362 27.9596H39.6653C40.5035 27.9617 41.3068 28.3104 41.8991 28.9293C42.4913 29.5482 42.8244 30.3867 42.8252 31.2613V35.5416Z" fill="#8F6FF5"/>
</svg>
