<svg width="175" height="72" viewBox="0 0 175 72" fill="none" xmlns="http://www.w3.org/2000/svg">
<path d="M1 7.67516C21.0807 -1.72465 23.8988 42.8655 38.0928 42.8655C52.2869 42.8655 52.2113 2.96144 65.979 2.96144C79.7467 2.96144 84.9833 33.2666 91.6127 36.6113C98.2421 39.956 109.722 27.3342 119.104 31.1357C128.487 34.9371 137.747 32.1922 146.947 17.7873C156.148 3.38242 173 2 173 2V72H1V7.67516Z" fill="url(#paint0_linear_103_6)"/>
<path d="M1 7.67503C21.1377 -1.76073 23.9638 43 38.1981 43C52.4324 43 52.3566 2.94328 66.1633 2.94328C79.9701 2.94328 85.2216 33.3644 91.8698 36.7219C98.518 40.0794 110.03 27.4093 119.439 31.2261C128.848 35.0429 135.154 35.7947 144.38 21.3384C153.606 6.88206 174 1 174 1" stroke="#8F6FF5" stroke-width="2" stroke-miterlimit="10"/>
<defs>
<linearGradient id="paint0_linear_103_6" x1="87" y1="2" x2="87" y2="72" gradientUnits="userSpaceOnUse">
<stop stop-color="#ECE8FD"/>
<stop offset="1" stop-color="#ECE8FD" stop-opacity="0.102"/>
</linearGradient>
</defs>
</svg>
